<svg width="56" height="15" viewBox="0 0 56 15" fill="none" xmlns="http://www.w3.org/2000/svg">
<path d="M10.7299 14.5136C14.6957 14.5326 18.3155 11.2786 18.3155 7.31988C18.3155 2.99084 14.6957 -0.00143932 10.7299 5.19397e-07H7.31677C3.3034 -0.00143932 0 2.99174 0 7.31988C0 11.2794 3.3034 14.5326 7.31677 14.5136H10.7299Z" fill="#0079BE"/>
<path d="M7.33437 0.599854C3.66706 0.601005 0.695322 3.57428 0.694458 7.24389C0.695322 10.9129 3.66703 13.8859 7.33437 13.887C11.0025 13.8859 13.9749 10.9129 13.9754 7.24389C13.9749 3.57428 11.0025 0.601005 7.33437 0.599854ZM3.12551 7.24389C3.12897 5.45071 4.24862 3.9216 5.82749 3.31396V11.1729C4.24862 10.5656 3.12894 9.03733 3.12551 7.24389ZM8.84068 11.1746V3.3137C10.4201 3.91987 11.5415 5.44985 11.5444 7.24389C11.5415 9.03849 10.4201 10.5673 8.84068 11.1746Z" fill="white"/>
<path d="M20.6438 3.12248C20.6438 2.43593 20.2859 2.48114 19.9427 2.47369V2.27528C20.2401 2.28996 20.545 2.28996 20.843 2.28996C21.1634 2.28996 21.5984 2.27528 22.1633 2.27528C24.1389 2.27528 25.2148 3.59532 25.2148 4.94702C25.2148 5.70294 24.7726 7.60324 22.0714 7.60324C21.6825 7.60324 21.3235 7.58824 20.965 7.58824C20.6218 7.58824 20.2859 7.59576 19.9427 7.60324V7.40512C20.4002 7.35902 20.6218 7.34378 20.6437 6.82458V3.12248H20.6438ZM21.3917 6.70276C21.3917 7.29051 21.8118 7.35905 22.1855 7.35905C23.834 7.35905 24.3753 6.11473 24.3753 4.97726C24.3753 3.55037 23.4594 2.52002 21.9871 2.52002C21.6739 2.52002 21.5299 2.54248 21.3918 2.55057L21.3917 6.70276ZM25.4825 7.40515H25.627C25.8404 7.40515 25.9933 7.40515 25.9933 7.15257V5.08441C25.9933 4.74896 25.8789 4.70228 25.5965 4.55052V4.42813C25.955 4.32043 26.3828 4.17644 26.4127 4.15341C26.4666 4.12288 26.5121 4.11482 26.5504 4.11482C26.5881 4.11482 26.6039 4.16089 26.6039 4.22223V7.15257C26.6039 7.40515 26.7718 7.40515 26.9854 7.40515H27.1149V7.60356C26.8552 7.60356 26.5881 7.58833 26.314 7.58833C26.0393 7.58833 25.7644 7.59581 25.4825 7.60356V7.40515H25.4825ZM26.2987 2.93959C26.1001 2.93959 25.925 2.75647 25.925 2.55803C25.925 2.36682 26.1081 2.19087 26.2987 2.19087C26.4965 2.19087 26.6727 2.35188 26.6727 2.55803C26.6727 2.76422 26.5043 2.93959 26.2987 2.93959ZM27.8398 5.12991C27.8398 4.8477 27.7554 4.77168 27.3976 4.62654V4.48172C27.7255 4.37488 28.0379 4.27553 28.4044 4.11485C28.4271 4.11485 28.4496 4.1304 28.4496 4.19116V4.68759C28.8852 4.37488 29.2592 4.11482 29.771 4.11482C30.4188 4.11482 30.6477 4.58821 30.6477 5.18344V7.1526C30.6477 7.40515 30.8155 7.40515 31.0294 7.40515H31.1668V7.60356C30.899 7.60356 30.6322 7.58833 30.3581 7.58833C30.0831 7.58833 29.8081 7.59581 29.5338 7.60356V7.40515H29.6708C29.885 7.40515 30.0368 7.40515 30.0368 7.1526V5.17624C30.0368 4.74055 29.771 4.52716 29.3354 4.52716C29.0916 4.52716 28.7023 4.7256 28.4495 4.89375V7.15254C28.4495 7.40512 28.6182 7.40512 28.8322 7.40512H28.9692V7.60353C28.7023 7.60353 28.4349 7.58827 28.1602 7.58827C27.8858 7.58827 27.6106 7.59579 27.3362 7.60353V7.40512H27.4738C27.6875 7.40512 27.8398 7.40512 27.8398 7.15254V5.12991H27.8398ZM31.7469 5.49675C31.7311 5.56561 31.7311 5.6799 31.7469 5.93965C31.7919 6.66446 32.2585 7.25973 32.868 7.25973C33.288 7.25973 33.6168 7.03079 33.8987 6.74858L34.0052 6.85571C33.654 7.32106 33.2192 7.71785 32.5939 7.71785C31.3804 7.71785 31.1362 6.54208 31.1362 6.054C31.1362 4.55769 32.1433 4.11479 32.6771 4.11479C33.2955 4.11479 33.9597 4.50387 33.9669 5.31303C33.9669 5.35939 33.9669 5.4046 33.9597 5.45097L33.8906 5.49675H31.7469ZM33.0978 5.2523C33.288 5.2523 33.3105 5.15295 33.3105 5.06166C33.3105 4.6723 33.0741 4.35928 32.6466 4.35928C32.1816 4.35928 31.8612 4.70225 31.7696 5.2523H33.0978ZM34.1426 7.40515H34.3487C34.5617 7.40515 34.7143 7.40515 34.7143 7.15257V5.00807C34.7143 4.77165 34.4325 4.72557 34.3176 4.66452V4.55049C34.8747 4.31349 35.1802 4.11479 35.2495 4.11479C35.2947 4.11479 35.3172 4.13783 35.3172 4.21443V4.90123H35.3333C35.5236 4.60376 35.8447 4.11479 36.3096 4.11479C36.5005 4.11479 36.7444 4.24438 36.7444 4.51939C36.7444 4.72557 36.5998 4.9093 36.3862 4.9093C36.1487 4.9093 36.1487 4.72557 35.8821 4.72557C35.7523 4.72557 35.3253 4.90123 35.3253 5.35939V7.15257C35.3253 7.40512 35.4776 7.40512 35.6915 7.40512H36.1185V7.60356C35.6987 7.59576 35.3794 7.5883 35.0506 7.5883C34.738 7.5883 34.4172 7.59578 34.1426 7.60356V7.40515H34.1426ZM37.0803 6.54208C37.1797 7.04602 37.4846 7.47369 38.0419 7.47369C38.491 7.47369 38.6591 7.19896 38.6591 6.93173C38.6591 6.03096 36.9962 6.32095 36.9962 5.09219C36.9962 4.66455 37.3399 4.11482 38.1789 4.11482C38.4228 4.11482 38.7507 4.18393 39.0481 4.33684L39.1022 5.11468H38.9263C38.8503 4.63431 38.5834 4.35933 38.0946 4.35933C37.7894 4.35933 37.4998 4.53502 37.4998 4.86299C37.4998 5.75685 39.2698 5.48126 39.2698 6.6795C39.2698 7.18315 38.8652 7.71791 37.9572 7.71791C37.6521 7.71791 37.2936 7.61108 37.0267 7.45874L36.9427 6.58075L37.0803 6.54208ZM46.1596 3.65692H45.9693C45.8242 2.76422 45.1908 2.40512 44.3366 2.40512C43.4585 2.40512 42.1843 2.99255 42.1843 4.82435C42.1843 6.36728 43.2837 7.47363 44.4584 7.47363C45.2136 7.47363 45.8397 6.95471 45.9923 6.15303L46.1674 6.19853L45.9923 7.31294C45.6719 7.51193 44.8096 7.71785 44.3055 7.71785C42.5205 7.71785 41.3916 6.56514 41.3916 4.84767C41.3916 3.28285 42.7877 2.16035 44.283 2.16035C44.9009 2.16035 45.496 2.35962 46.0836 2.56581L46.1596 3.65692ZM46.4349 7.40515H46.5794C46.7933 7.40515 46.9465 7.40515 46.9465 7.15257V2.90161C46.9465 2.40515 46.8319 2.38986 46.5417 2.30606V2.18396C46.8469 2.08493 47.1673 1.94725 47.3277 1.85542C47.4109 1.80992 47.4725 1.7713 47.4949 1.7713C47.5416 1.7713 47.5568 1.81741 47.5568 1.87871V7.15257C47.5568 7.40515 47.7244 7.40515 47.9383 7.40515H48.067V7.60356C47.8087 7.60356 47.5416 7.5883 47.2666 7.5883C46.9923 7.5883 46.7176 7.59581 46.4348 7.60356V7.40515H46.4349ZM51.334 7.18313C51.334 7.32106 51.4175 7.32855 51.5471 7.32855C51.6389 7.32855 51.7529 7.32106 51.8525 7.32106V7.48175C51.5241 7.51199 50.8984 7.67238 50.7533 7.71788L50.715 7.69482V7.07715C50.2578 7.45091 49.9063 7.71788 49.3642 7.71788C48.9522 7.71788 48.525 7.45091 48.525 6.81018V4.85545C48.525 4.65704 48.4947 4.46608 48.0681 4.4281V4.28296C48.343 4.27548 48.9522 4.22966 49.0518 4.22966C49.1365 4.22966 49.1365 4.28296 49.1365 4.45085V6.41966C49.1365 6.6492 49.1365 7.30545 49.7998 7.30545C50.0592 7.30545 50.4024 7.10704 50.7225 6.84067V4.7863C50.7225 4.63426 50.3566 4.55046 50.0825 4.47383V4.33647C50.7683 4.29039 51.1964 4.22963 51.2721 4.22963C51.334 4.22963 51.334 4.28291 51.334 4.36728V7.18313H51.334ZM52.8522 4.66455C53.1571 4.40506 53.5691 4.11482 53.9891 4.11482C54.8744 4.11482 55.4079 4.88658 55.4079 5.71791C55.4079 6.71777 54.6758 7.71785 53.584 7.71785C53.0197 7.71785 52.7223 7.53442 52.5237 7.45088L52.2951 7.62596L52.1353 7.54248C52.203 7.0921 52.2418 6.6492 52.2418 6.18385V2.90158C52.2418 2.40515 52.1267 2.38986 51.837 2.30606V2.18396C52.1431 2.08493 52.4626 1.94725 52.623 1.85539C52.7071 1.80989 52.7678 1.7713 52.7914 1.7713C52.8369 1.7713 52.8522 1.81741 52.8522 1.87871V4.66452H52.8522V4.66455ZM52.8522 6.74052C52.8522 7.03079 53.1266 7.51976 53.6379 7.51976C54.4544 7.51976 54.7975 6.71777 54.7975 6.03819C54.7975 5.21402 54.1725 4.52722 53.5772 4.52722C53.2941 4.52722 53.058 4.71066 52.8522 4.88658V6.74052H52.8522ZM19.934 12.0414H19.9924C20.1415 12.0414 20.2993 12.0213 20.2993 11.805V9.6291C20.2993 9.41252 20.1415 9.3921 19.9924 9.3921H19.934V9.26741C20.096 9.26741 20.3451 9.28383 20.5492 9.28383C20.7565 9.28383 21.0052 9.26741 21.2004 9.26741V9.3921H21.142C20.9932 9.3921 20.8351 9.41255 20.8351 9.6291V11.805C20.8351 12.0213 20.9932 12.0414 21.142 12.0414H21.2004V12.1667C21.0012 12.1667 20.7516 12.1503 20.5446 12.1503C20.3411 12.1503 20.096 12.1667 19.934 12.1667V12.0414Z" fill="#211E1F"/>
<path d="M21.2003 12.1842C20.9997 12.1842 20.7509 12.1675 20.5442 12.1675C20.3412 12.1675 20.0971 12.1842 19.9338 12.1842H19.916V12.0236H19.992C20.1426 12.0201 20.2796 12.008 20.2811 11.805V9.62908C20.2796 9.42606 20.1426 9.4125 19.992 9.40965H19.916V9.24896H19.9338C20.0971 9.24896 20.3459 9.26538 20.5488 9.26538C20.7555 9.26538 21.004 9.24896 21.2003 9.24896H21.2188V9.40965H21.1422C20.9916 9.41253 20.8537 9.42606 20.8528 9.62908V11.805C20.8537 12.008 20.9916 12.0201 21.1422 12.0236H21.2187V12.1842H21.2003ZM21.1825 12.1488V12.0601H21.1422C20.9939 12.0601 20.8174 12.0345 20.8165 11.805V9.62908C20.8174 9.39957 20.9939 9.37365 21.1422 9.37365H21.1825V9.28553C20.9907 9.28553 20.7503 9.30166 20.5488 9.30166C20.3516 9.30166 20.1129 9.28669 19.9523 9.28553V9.37365H19.992C20.14 9.37365 20.317 9.39957 20.317 9.62908V11.805C20.317 12.0345 20.14 12.0601 19.992 12.0601H19.9523V12.1488C20.1129 12.1471 20.3475 12.1321 20.5442 12.1321C20.7463 12.1321 20.9867 12.1476 21.1825 12.1488ZM24.0526 11.348L24.0609 11.3399V9.78257C24.0609 9.44161 23.824 9.39208 23.6996 9.39208H23.608V9.26736C23.8035 9.26736 23.9944 9.28378 24.1893 9.28378C24.3594 9.28378 24.5305 9.26736 24.7003 9.26736V9.39208H24.6381C24.4634 9.39208 24.2682 9.42517 24.2682 9.91935V11.8096C24.2682 11.9547 24.2725 12.0998 24.2929 12.2286H24.1349L21.9972 9.84451V11.5559C21.9972 11.9173 22.0672 12.0414 22.3873 12.0414H22.4575V12.1667C22.2794 12.1667 22.1011 12.1503 21.9223 12.1503C21.736 12.1503 21.5449 12.1667 21.3578 12.1667V12.0414H21.4159C21.7024 12.0414 21.7894 11.8467 21.7894 11.5147V9.76532C21.7894 9.53293 21.5979 9.39211 21.4119 9.39211H21.3578V9.26742C21.5155 9.26742 21.6774 9.28381 21.8349 9.28381C21.9595 9.28381 22.0802 9.26742 22.2045 9.26742L24.0526 11.348Z" fill="#211E1F"/>
<path d="M24.2933 12.2468L24.122 12.2404L22.0151 9.89147V11.5559C22.02 11.917 22.075 12.0196 22.3876 12.0236H22.4766V12.1843H22.4582C22.2785 12.1843 22.0997 12.1676 21.9226 12.1676C21.7366 12.1676 21.5461 12.1843 21.3578 12.1843H21.3396V12.0236H21.4162C21.6906 12.0222 21.7689 11.8459 21.7721 11.5148V9.76563C21.7715 9.54446 21.5901 9.41027 21.4122 9.40969H21.3396V9.24958H21.3577C21.5164 9.24958 21.679 9.26542 21.8348 9.26542C21.9583 9.26542 22.0787 9.24958 22.2186 9.25563L24.0433 11.3103V9.78293C24.041 9.45234 23.8208 9.4126 23.6998 9.40969H23.5898V9.24958H23.6083C23.8044 9.24958 23.9955 9.26542 24.1895 9.26542C24.3585 9.26542 24.5287 9.24958 24.7003 9.24958H24.7184V9.40967H24.6384C24.4671 9.41459 24.2912 9.42954 24.2863 9.91937V11.8093C24.2863 11.9545 24.2906 12.0996 24.3108 12.2254L24.3148 12.2467H24.2933V12.2468ZM24.1355 12.2102H24.2728C24.2542 12.0855 24.251 11.9473 24.251 11.8093V9.91937C24.251 9.4209 24.4597 9.3737 24.6385 9.3737H24.6822V9.28555C24.5187 9.2867 24.3546 9.30168 24.1897 9.30168C23.9996 9.30168 23.8148 9.2867 23.6268 9.28555L23.6265 9.3737H23.6999C23.8275 9.3737 24.0794 9.43069 24.0794 9.7829L24.0736 11.3523L24.0653 11.361L24.0512 11.3739L22.2049 9.28555C22.0817 9.28555 21.9613 9.30168 21.8349 9.30168C21.6826 9.30168 21.5269 9.2867 21.3763 9.28555L21.3754 9.37367H21.4123C21.6072 9.37367 21.8073 9.52255 21.8073 9.7656V11.5147C21.8073 11.8467 21.7149 12.0592 21.4163 12.0604L21.3763 12.0592V12.1488C21.5562 12.1471 21.7411 12.1321 21.9227 12.1321C22.096 12.1321 22.2685 12.1471 22.44 12.1488V12.0604H22.3877C22.0609 12.0592 21.9797 11.917 21.9794 11.5559V9.79782L24.1355 12.2102ZM24.0529 11.3477L24.0661 11.3356L24.0529 11.3477ZM24.0434 11.3397V11.3382L24.0399 11.3353L24.0434 11.3397ZM25.3222 9.47475C25.0104 9.47475 24.9986 9.54965 24.9365 9.85256H24.8118C24.8282 9.73651 24.8489 9.62046 24.8616 9.49951C24.8783 9.38317 24.8863 9.26738 24.8863 9.14704H24.9862C25.0196 9.27173 25.1233 9.26741 25.2359 9.26741H27.3776C27.4898 9.26741 27.5935 9.26338 27.6021 9.13843L27.7012 9.15513C27.685 9.26741 27.6683 9.37946 27.6557 9.49174C27.6482 9.60379 27.6482 9.71607 27.6482 9.8278L27.5232 9.87416C27.5146 9.72067 27.4939 9.47475 27.216 9.47475H26.5352V11.6846C26.5352 12.0048 26.6806 12.0414 26.8792 12.0414H26.9584V12.1667C26.7966 12.1667 26.5055 12.1503 26.2818 12.1503C26.0328 12.1503 25.7417 12.1667 25.5796 12.1667V12.0414H25.6588C25.8877 12.0414 26.0034 12.021 26.0034 11.6933V9.47475H25.3222Z" fill="#211E1F"/>
<path d="M26.9598 12.1842C26.7962 12.1842 26.5058 12.1675 26.2826 12.1675C26.0339 12.1675 25.7434 12.1842 25.5804 12.1842H25.5632V12.0235H25.6596C25.8885 12.0181 25.9806 12.0152 25.9858 11.6932V9.49288H25.3231V9.45628H26.0218V11.6932C26.0218 12.0264 25.8877 12.0601 25.6596 12.0604H25.5986V12.1479C25.7624 12.1471 26.0417 12.1321 26.2827 12.1321C26.4992 12.1321 26.7767 12.1471 26.9408 12.1479V12.0604H26.8801C26.6794 12.0601 26.5179 12.0108 26.5179 11.6846V9.45628H27.2169C27.4956 9.45743 27.5319 9.69443 27.5411 9.84849L27.6306 9.81537C27.6306 9.7071 27.6312 9.59853 27.6387 9.48911C27.6508 9.38227 27.666 9.2763 27.6816 9.17032L27.6182 9.15967C27.599 9.28062 27.4823 9.28666 27.3778 9.28551H25.2151C25.1175 9.28551 25.0107 9.2809 24.9735 9.16488H24.905C24.9046 9.27761 24.8964 9.39017 24.8805 9.50178C24.8684 9.61584 24.8494 9.72556 24.8339 9.83527H24.9229C24.9775 9.54584 25.0133 9.45196 25.323 9.45631V9.49288C25.0161 9.49835 25.0225 9.55018 24.9548 9.85716L24.9517 9.87127H24.7919L24.7942 9.84967C24.8109 9.73333 24.8319 9.61754 24.8443 9.49659C24.8615 9.38141 24.8696 9.26622 24.8696 9.147V9.12886H25.0012L25.0041 9.14182C25.0326 9.24664 25.1094 9.24721 25.2151 9.24894H27.3778C27.4936 9.24721 27.5776 9.24548 27.5848 9.13689L27.5865 9.11731L27.6053 9.12134L27.7224 9.1398L27.7198 9.15794C27.7031 9.2691 27.6867 9.38141 27.6746 9.49285C27.6663 9.60343 27.6663 9.71574 27.6663 9.82776V9.84072L27.6548 9.84532L27.5077 9.89886L27.5065 9.87467C27.4956 9.71859 27.4792 9.49282 27.2169 9.49282H26.5541V11.6846C26.5579 11.9979 26.6822 12.0195 26.88 12.0235H26.9773V12.1842L26.9598 12.1842ZM27.8347 12.0414H27.8932C28.0424 12.0414 28.2004 12.0212 28.2004 11.805V9.62906C28.2004 9.41248 28.0424 9.39206 27.8932 9.39206H27.8347V9.26737C28.0875 9.26737 28.52 9.28378 28.868 9.28378C29.2175 9.28378 29.6485 9.26737 29.9306 9.26737C29.9238 9.44562 29.9275 9.72035 29.9399 9.90266L29.8146 9.93603C29.7948 9.66624 29.7449 9.45055 29.3088 9.45055H28.7321V10.5382H29.2256C29.4746 10.5382 29.5291 10.3974 29.5535 10.1725H29.6779C29.6699 10.3352 29.6655 10.4971 29.6655 10.6589C29.6655 10.817 29.6698 10.9745 29.6779 11.1323L29.5535 11.1571C29.5291 10.908 29.5164 10.7461 29.2296 10.7461H28.7322V11.7134C28.7322 11.9838 28.972 11.9838 29.238 11.9838C29.7363 11.9838 29.956 11.9501 30.0807 11.4773L30.197 11.5058C30.1426 11.7264 30.0931 11.9461 30.0562 12.1667C29.7902 12.1667 29.3126 12.1503 28.9394 12.1503C28.5652 12.1503 28.0715 12.1667 27.8347 12.1667V12.0414Z" fill="#211E1F"/>
<path d="M30.0558 12.1843C29.7892 12.1843 29.3119 12.1672 28.9391 12.1672C28.5651 12.1672 28.0716 12.1843 27.8347 12.1843H27.8171V12.0236H27.8929C28.0434 12.0213 28.1799 12.008 28.1819 11.805V9.62909C28.1799 9.42636 28.0434 9.41282 27.8929 9.40966H27.8171V9.24957H27.8347C28.088 9.24957 28.5199 9.26541 28.868 9.26541C29.2172 9.26541 29.6479 9.24957 29.9306 9.24957H29.9493L29.9484 9.268C29.9455 9.33049 29.9444 9.40418 29.9444 9.48254C29.9444 9.62621 29.9484 9.78315 29.9568 9.90153L29.9574 9.91651L29.9436 9.92057L29.7976 9.95858L29.7968 9.93727C29.7723 9.66773 29.7363 9.4722 29.3088 9.46817H28.7494L28.7488 10.5195H29.2256C29.4646 10.5172 29.5074 10.3949 29.5357 10.1711L29.5371 10.1547H29.6963L29.696 10.1734C29.688 10.3352 29.6828 10.4971 29.6828 10.6589C29.6828 10.8161 29.688 10.9736 29.696 11.1317L29.6963 11.1465L29.6814 11.1499L29.5371 11.1787L29.5357 11.1591C29.5072 10.9057 29.5051 10.7669 29.2293 10.7637L28.7494 10.7634V11.7134C28.7497 11.9657 28.9673 11.9643 29.238 11.9657C29.7377 11.9628 29.9381 11.9387 30.0634 11.4721L30.0674 11.4554L30.085 11.4586L30.218 11.4928L30.214 11.5101C30.1604 11.7301 30.1106 11.9496 30.0734 12.1695L30.07 12.1843H30.0558ZM30.0406 12.148C30.0766 11.9386 30.124 11.7284 30.1751 11.5193L30.093 11.4986C29.9686 11.9634 29.7279 12.0048 29.2379 12.0017C28.9765 12.0017 28.7145 12.0017 28.7133 11.7134V10.728H29.2293C29.5192 10.7248 29.5489 10.8999 29.5693 11.1363L29.6591 11.1176C29.6512 10.9648 29.6472 10.8119 29.6473 10.6589C29.6473 10.5025 29.651 10.347 29.6591 10.1906H29.5693C29.5463 10.4069 29.4786 10.5589 29.2256 10.5561H28.7134V9.43183H29.3088C29.7406 9.42892 29.8123 9.65184 29.8307 9.91302L29.9203 9.88883C29.9131 9.77163 29.9081 9.62131 29.9081 9.48251C29.9081 9.41138 29.9099 9.34429 29.9122 9.28554C29.6301 9.28669 29.2097 9.30167 28.868 9.30167C28.5268 9.30167 28.1068 9.28669 27.8526 9.28554V9.37366H27.8928C28.0408 9.37366 28.2176 9.39958 28.2182 9.62909V11.805C28.2176 12.0339 28.0408 12.0593 27.8928 12.0604H27.8526V12.148C28.0947 12.1477 28.5744 12.1321 28.9391 12.1321C29.3053 12.1321 29.7728 12.1477 30.0406 12.148ZM30.7573 9.70741C30.7573 9.40447 30.5915 9.39209 30.4622 9.39209H30.3876V9.26711C30.5206 9.26711 30.7777 9.28381 31.0311 9.28381C31.2801 9.28381 31.4796 9.26711 31.6993 9.26711C32.2221 9.26711 32.6877 9.4085 32.6877 9.99884C32.6877 10.3718 32.4387 10.6004 32.1107 10.7297L32.8204 11.7923C32.9367 11.968 33.0193 12.0172 33.2232 12.0414V12.1667C33.0861 12.1667 32.9531 12.1503 32.8163 12.1503C32.6877 12.1503 32.5543 12.1667 32.4262 12.1667C32.1066 11.7471 31.832 11.2984 31.5622 10.8204H31.289V11.7097C31.289 12.0299 31.4379 12.0414 31.6287 12.0414H31.7036V12.1667C31.4664 12.1667 31.2266 12.1503 30.9896 12.1503C30.7901 12.1503 30.5949 12.1667 30.3876 12.1667V12.0414H30.4622C30.6165 12.0414 30.7573 11.9717 30.7573 11.8177V9.70741ZM31.289 10.671H31.4917C31.9071 10.671 32.1308 10.5132 32.1308 10.023C32.1308 9.65385 31.8945 9.41685 31.5245 9.41685C31.3999 9.41685 31.3469 9.42981 31.289 9.43356V10.671H31.289Z" fill="#211E1F"/>
<path d="M33.2231 12.1843C33.0841 12.1843 32.9519 12.1676 32.8155 12.1676C32.6888 12.1676 32.5563 12.1843 32.4116 12.1774C32.0931 11.7595 31.8202 11.3135 31.5519 10.8389H31.3066V11.7092C31.3109 12.0216 31.4364 12.019 31.6284 12.0236H31.7214V12.1843H31.703C31.4657 12.1843 31.2248 12.1676 30.989 12.1676C30.7906 12.1676 30.596 12.1843 30.3876 12.1843H30.3694V12.0236H30.4621C30.6118 12.0228 30.7379 11.9577 30.7385 11.8177V9.70753C30.7354 9.41265 30.5911 9.41435 30.4621 9.41006H30.3694V9.24908H30.3876C30.522 9.24908 30.7782 9.26547 31.031 9.26547C31.2789 9.26547 31.4784 9.24908 31.6996 9.24908C32.2227 9.25024 32.7046 9.3948 32.706 9.9978C32.706 10.373 32.4582 10.6071 32.1377 10.7379L32.8353 11.7826C32.9513 11.9548 33.0236 11.9977 33.2257 12.0236L33.2409 12.0259V12.1843H33.2231V12.1843ZM31.2885 10.8026H31.5723L31.5772 10.8118C31.8478 11.289 32.1204 11.737 32.4262 12.1488C32.5529 12.1488 32.6862 12.1319 32.8155 12.1319C32.9482 12.1319 33.076 12.1463 33.2053 12.1483V12.0573C33.0103 12.0331 32.9191 11.9749 32.8057 11.8024L32.0833 10.7211L32.1037 10.7127C32.4285 10.5849 32.6689 10.3629 32.6692 9.99769C32.6689 9.42146 32.2215 9.28787 31.6996 9.28557C31.4804 9.28557 31.2812 9.30198 31.031 9.30198C30.7872 9.30198 30.541 9.28672 30.4051 9.28557V9.37369H30.4621C30.5911 9.37401 30.7748 9.39529 30.7748 9.70747V11.8177C30.7748 11.9844 30.6184 12.0604 30.4621 12.0607H30.4051V12.1482C30.6049 12.1477 30.7941 12.1319 30.989 12.1319C31.2213 12.1319 31.4554 12.1477 31.6852 12.1482V12.0607H31.6284C31.439 12.0604 31.2703 12.0368 31.2703 11.7091V10.8026H31.2884H31.2885ZM31.2885 10.6886H31.2703V9.41688L31.2861 9.41544C31.3428 9.41115 31.399 9.39932 31.5245 9.39932C31.9028 9.39932 32.1487 9.64524 32.1492 10.0239C32.1481 10.5198 31.9103 10.6882 31.4917 10.6885H31.2885V10.6886ZM31.4917 10.6529C31.9028 10.6494 32.1095 10.5066 32.1138 10.0239C32.1115 9.66108 31.8861 9.43589 31.5245 9.43445C31.4122 9.43445 31.3595 9.44482 31.3065 9.44945V10.6529H31.4917ZM36.042 11.348L36.0495 11.3399V9.7826C36.0495 9.44165 35.8131 9.39212 35.6888 9.39212H35.5978V9.2674C35.7927 9.2674 35.9833 9.28381 36.1788 9.28381C36.3492 9.28381 36.5188 9.2674 36.6901 9.2674V9.39212H36.6276C36.4532 9.39212 36.2579 9.42521 36.2579 9.91939V11.8096C36.2579 11.9548 36.262 12.0999 36.2824 12.2286H36.125L33.987 9.84455V11.5559C33.987 11.9173 34.0575 12.0415 34.3771 12.0415H34.4476V12.1667C34.2694 12.1667 34.0906 12.1503 33.9124 12.1503C33.7249 12.1503 33.5341 12.1667 33.3475 12.1667V12.0415H33.4051C33.6919 12.0415 33.7791 11.8468 33.7791 11.5148V9.76535C33.7791 9.53296 33.5882 9.39215 33.4017 9.39215H33.3475V9.26746C33.5048 9.26746 33.6674 9.28384 33.8249 9.28384C33.9487 9.28384 34.0696 9.26746 34.1943 9.26746L36.042 11.348Z" fill="#211E1F"/>
<path d="M36.2824 12.2465L36.1115 12.2407L34.0043 9.89151V11.5557C34.0092 11.9171 34.0639 12.0196 34.3771 12.0236H34.465V12.1843H34.4468C34.2672 12.1843 34.0892 12.1673 33.9113 12.1673C33.7259 12.1673 33.5342 12.1843 33.3473 12.1843H33.3286V12.0236H33.4049C33.679 12.0225 33.7576 11.846 33.7602 11.5136V9.76538C33.7599 9.54419 33.5788 9.41003 33.4015 9.40971H33.3286V9.24905H33.3473C33.5057 9.24905 33.6681 9.26544 33.8247 9.26544C33.9467 9.26544 34.0671 9.24905 34.2064 9.25478L36.0315 11.3103V9.78234C36.0303 9.45233 35.8092 9.41144 35.6886 9.40974H35.5788V9.24905H35.597C35.7934 9.24905 35.9845 9.26544 36.1785 9.26544C36.3479 9.26544 36.518 9.24905 36.689 9.24905H36.7071V9.40974H36.6274C36.4561 9.41435 36.2796 9.42958 36.2753 9.91945V11.8094C36.2753 11.9545 36.279 12.0985 36.3 12.2263L36.3023 12.2465H36.2824ZM36.1247 12.2102H36.2612C36.243 12.0855 36.239 11.9473 36.239 11.8094V9.91942C36.2393 9.42091 36.4495 9.37487 36.6274 9.37343H36.6708V9.2856C36.5079 9.28675 36.3435 9.30172 36.1785 9.30172C35.988 9.30172 35.8028 9.28675 35.6148 9.2856V9.37343H35.6885C35.8163 9.37487 36.068 9.43073 36.068 9.78234L36.0623 11.3524L36.0542 11.361L36.0415 11.3742L34.1938 9.28562C34.0705 9.28562 33.9502 9.30175 33.8247 9.30175C33.671 9.30175 33.5158 9.28678 33.3646 9.28562V9.37345H33.4014C33.5964 9.37489 33.7965 9.52205 33.7965 9.76538V11.5136C33.7965 11.8471 33.7026 12.0593 33.4049 12.0605L33.3646 12.0602V12.148C33.544 12.1472 33.7291 12.1322 33.9114 12.1322C34.0856 12.1322 34.258 12.1472 34.4296 12.148V12.0605H34.3772C34.0501 12.0602 33.9684 11.9171 33.9678 11.5557V9.79847L36.1247 12.2102ZM36.0418 11.3477L36.0544 11.3359L36.0418 11.3477ZM36.0314 11.34V11.3385L36.0282 11.3354L36.0314 11.34ZM37.3576 11.5727C37.3156 11.7135 37.2655 11.8223 37.2655 11.8963C37.2655 12.0213 37.4402 12.0415 37.5767 12.0415H37.623V12.1667C37.4567 12.1578 37.287 12.1503 37.1198 12.1503C36.9704 12.1503 36.8218 12.1578 36.6721 12.1667V12.0415H36.6971C36.8589 12.0415 36.9963 11.9461 37.0576 11.7713L37.7226 9.86554C37.7762 9.71176 37.8516 9.50414 37.8767 9.3501C38.0089 9.30489 38.1753 9.22195 38.2539 9.17185C38.2668 9.16756 38.274 9.16321 38.287 9.16321C38.2994 9.16321 38.3074 9.16321 38.3166 9.17617C38.3287 9.20899 38.3408 9.24672 38.3541 9.27984L39.1178 11.4523C39.1676 11.5974 39.2168 11.7509 39.2707 11.8759C39.3208 11.9922 39.4083 12.0415 39.5457 12.0415H39.5701V12.1667C39.3833 12.1578 39.1962 12.1503 38.9975 12.1503C38.794 12.1503 38.5858 12.1578 38.3742 12.1667V12.0415H38.4203C38.5153 12.0415 38.6777 12.0253 38.6777 11.9214C38.6777 11.8675 38.6402 11.7555 38.5939 11.6222L38.4324 11.1404H37.4901L37.3576 11.5727ZM37.9633 9.73252H37.955L37.5689 10.908H38.3448L37.9633 9.73252Z" fill="#211E1F"/>
<path d="M39.5679 12.1843C39.3811 12.1759 39.1942 12.1673 38.9965 12.1673C38.7929 12.1673 38.5862 12.1759 38.3737 12.1843L38.355 12.1854V12.023H38.4189C38.5151 12.023 38.6579 12.0011 38.6579 11.9214C38.659 11.8741 38.6216 11.7601 38.5758 11.628L38.4177 11.1583H37.502L37.373 11.5778C37.3309 11.7195 37.2812 11.8292 37.2814 11.8969C37.2828 11.9983 37.438 12.023 37.5756 12.023H37.6396V12.1854L37.6209 12.1843C37.4547 12.1759 37.2852 12.1673 37.1196 12.1673C36.9708 12.1673 36.8211 12.1759 36.6722 12.1843L36.653 12.1854V12.023H36.6959C36.8504 12.0224 36.9794 11.9346 37.0393 11.7656L37.7041 9.85953C37.7585 9.70547 37.8334 9.49842 37.8693 9.33284C37.9995 9.28878 38.1661 9.20527 38.2462 9.15458C38.2577 9.15084 38.2693 9.14508 38.2863 9.14508C38.2963 9.14479 38.3188 9.14738 38.332 9.1693C38.3438 9.20354 38.3568 9.24043 38.3694 9.27412L39.1341 11.4463C39.1831 11.592 39.2326 11.7455 39.2867 11.8682C39.3348 11.979 39.4111 12.0225 39.5447 12.0231H39.587V12.1855L39.5679 12.1843ZM38.3913 12.1471C38.5968 12.1399 38.7981 12.1319 38.9965 12.1319C39.1893 12.1319 39.3698 12.1399 39.5503 12.1471V12.0604H39.5446C39.4024 12.0613 39.3042 12.0055 39.2532 11.8831C39.1991 11.7569 39.1484 11.6029 39.0998 11.4574L38.3354 9.28558C38.3228 9.25246 38.3107 9.21474 38.2997 9.18537C38.2963 9.18134 38.2971 9.18133 38.2937 9.18133H38.2861C38.2775 9.18133 38.2726 9.18393 38.262 9.18681C38.182 9.23893 38.0153 9.32042 37.8923 9.35296C37.8667 9.5102 37.7921 9.71753 37.738 9.87131L37.0735 11.7777C37.0102 11.9579 36.8648 12.0607 36.6958 12.0604H36.6892V12.1471C36.8314 12.1399 36.9753 12.1319 37.1196 12.1319C37.2799 12.1319 37.4441 12.1399 37.6024 12.1471V12.0604H37.5756C37.4406 12.0587 37.2517 12.0434 37.2466 11.8969C37.2468 11.8139 37.2978 11.7077 37.3384 11.5675L37.3565 11.5729L37.3384 11.5668L37.4751 11.1228H38.4431L38.6097 11.6164C38.6564 11.7497 38.6941 11.8603 38.6941 11.9214C38.6884 12.0489 38.513 12.0579 38.4189 12.0605H38.3912V12.1471H38.3913ZM37.5425 10.9258L37.9401 9.71434H37.9626V9.73248L37.958 9.73334L37.9626 9.73248V9.71434H37.975L38.3691 10.9258H37.5425ZM37.5923 10.8898H38.319L37.9576 9.77683L37.5923 10.8898ZM37.9444 9.73769L37.9539 9.73452L37.9444 9.73769ZM39.7517 9.47475C39.4401 9.47475 39.4278 9.54965 39.3652 9.85256H39.2406C39.257 9.73651 39.278 9.62046 39.291 9.49951C39.3076 9.38317 39.3152 9.26738 39.3152 9.14704H39.4154C39.4485 9.27173 39.5527 9.26741 39.6641 9.26741H41.807C41.9184 9.26741 42.0221 9.26338 42.0307 9.13843L42.13 9.15513C42.1142 9.26741 42.0978 9.37946 42.0851 9.49174C42.0762 9.60379 42.0762 9.71607 42.0762 9.8278L41.9518 9.87416C41.944 9.72067 41.9233 9.47475 41.6449 9.47475H40.964V11.6846C40.964 12.0049 41.1097 12.0415 41.3084 12.0415H41.3872V12.1667C41.2254 12.1667 40.9352 12.1503 40.7106 12.1503C40.4619 12.1503 40.1708 12.1667 40.009 12.1667V12.0415H40.0876C40.3165 12.0415 40.4328 12.021 40.4328 11.6933V9.47475H39.7517Z" fill="#211E1F"/>
<path d="M41.3873 12.1843C41.2243 12.1843 40.9335 12.1676 40.7107 12.1676C40.4625 12.1676 40.1717 12.1843 40.009 12.1843H39.9906V12.0236H40.0876C40.3165 12.0181 40.4084 12.0152 40.4141 11.6933L40.4135 9.49291H39.7516V9.45631H40.4501V11.6933C40.4501 12.0264 40.3156 12.0593 40.0876 12.0601H40.0266V12.1488C40.191 12.1471 40.4697 12.1321 40.7107 12.1321C40.9274 12.1321 41.205 12.1471 41.3691 12.1488V12.0601H41.3078C41.1082 12.0593 40.9464 12.0112 40.9459 11.6846V9.45631H41.6449C41.9236 9.45746 41.9601 9.69446 41.968 9.84853L42.0586 9.81541C42.0586 9.70713 42.0589 9.59857 42.067 9.48972C42.0785 9.38288 42.094 9.27633 42.1093 9.17033L42.0465 9.15967C42.0275 9.28062 41.9104 9.28727 41.807 9.28552H39.6431C39.5452 9.28667 39.4393 9.28091 39.4015 9.16428H39.3336C39.3324 9.27947 39.3247 9.39123 39.3082 9.50181C39.2973 9.61613 39.2769 9.72614 39.2613 9.83528H39.3503C39.4053 9.54584 39.4413 9.45196 39.7516 9.45631V9.49288C39.4439 9.4981 39.4508 9.55019 39.3828 9.85717L39.3796 9.87128H39.2195L39.2221 9.85051C39.2394 9.73334 39.2601 9.61755 39.2722 9.49746C39.2892 9.38141 39.2973 9.26622 39.2973 9.147V9.12886H39.4285L39.432 9.14182C39.4611 9.24664 39.5368 9.24722 39.643 9.24894L39.664 9.24952H41.807C41.9215 9.24725 42.0053 9.24549 42.0125 9.13724L42.0137 9.11737L42.0332 9.12143L42.151 9.13986L42.1479 9.158C42.1309 9.26916 42.115 9.38147 42.1024 9.49291C42.094 9.60349 42.094 9.71609 42.094 9.82782V9.84078L42.0822 9.84539L41.9351 9.89895L41.9343 9.87473C41.9236 9.71868 41.9072 9.49288 41.6449 9.49288H40.9819V11.6846C40.9862 11.9979 41.1103 12.0195 41.3078 12.0236H41.4051V12.1842L41.3873 12.1843ZM42.2833 12.0414H42.3415C42.4915 12.0414 42.6484 12.0213 42.6484 11.805V9.62909C42.6484 9.41251 42.4915 9.39209 42.3415 9.39209H42.2833V9.2674C42.4455 9.2674 42.6942 9.28382 42.8972 9.28382C43.1056 9.28382 43.3547 9.2674 43.5498 9.2674V9.39209H43.4917C43.3423 9.39209 43.1839 9.41254 43.1839 9.62909V11.805C43.1839 12.0213 43.3423 12.0414 43.4917 12.0414H43.5498V12.1667C43.3503 12.1667 43.101 12.1503 42.894 12.1503C42.6902 12.1503 42.4455 12.1667 42.2833 12.1667V12.0414Z" fill="#211E1F"/>
<path d="M43.5495 12.1843C43.3489 12.1843 43.1004 12.1673 42.8934 12.1673C42.6904 12.1673 42.4452 12.1843 42.2831 12.1843H42.265V12.0236H42.3412C42.4912 12.0213 42.6289 12.0084 42.6294 11.8051V9.62915C42.6289 9.42642 42.4912 9.41257 42.3412 9.40972H42.265V9.24964H42.2831C42.4452 9.24964 42.6945 9.26548 42.8969 9.26548C43.1039 9.26548 43.3529 9.24964 43.5495 9.24964H43.5671V9.40972H43.4914C43.3397 9.4126 43.2035 9.42642 43.2015 9.62915V11.8051C43.2035 12.0084 43.3397 12.0213 43.4914 12.0236H43.5671V12.1843H43.5495ZM43.5309 12.148V12.0602H43.4914C43.3425 12.0602 43.1664 12.034 43.1664 11.8051V9.62915C43.1664 9.39964 43.3425 9.37372 43.4914 9.37372H43.5309V9.2856C43.3391 9.28676 43.0993 9.30173 42.8969 9.30173C42.7002 9.30173 42.4621 9.28676 42.3012 9.2856V9.37372H42.3413C42.4889 9.37372 42.6657 9.39964 42.6663 9.62915V11.8051C42.6657 12.034 42.4889 12.0602 42.3413 12.0602H42.3012V12.148C42.4613 12.1463 42.6963 12.1322 42.8934 12.1322C43.0947 12.1322 43.3351 12.1472 43.5308 12.148H43.5309ZM45.2051 9.20526C46.0902 9.20526 46.7955 9.75413 46.7955 10.6385C46.7955 11.594 46.1106 12.2289 45.2267 12.2289C44.3457 12.2289 43.6738 11.6308 43.6738 10.7378C43.6738 9.87421 44.3417 9.20526 45.2051 9.20526ZM45.2679 12.0461C46.0734 12.0461 46.2137 11.3354 46.2137 10.7298C46.2137 10.1227 45.8866 9.38783 45.1971 9.38783C44.4704 9.38783 44.2548 10.0358 44.2548 10.5918C44.2548 11.3354 44.5951 12.0461 45.2679 12.0461Z" fill="#211E1F"/>
<path d="M43.6554 10.7378C43.6572 9.86409 44.3332 9.18822 45.2052 9.18707V9.22275C44.3519 9.22275 43.6914 9.88309 43.6906 10.7378C43.6926 11.6207 44.355 12.2099 45.2268 12.2101C46.102 12.2099 46.7772 11.5838 46.7786 10.6376C46.7777 9.76445 46.083 9.2239 45.2052 9.22275V9.18707C46.0971 9.18765 46.812 9.74199 46.8137 10.6376C46.8129 11.6031 46.119 12.2447 45.2268 12.2464C44.3389 12.2447 43.6572 11.6405 43.6555 10.7378H43.6554V10.7378ZM44.237 10.5918C44.2381 10.0332 44.4564 9.36907 45.1974 9.36907C45.9022 9.37083 46.2313 10.1195 46.2324 10.7297C46.2313 11.3353 46.0888 12.0633 45.2683 12.0633V12.0282C46.0577 12.0271 46.1945 11.3353 46.1964 10.7297C46.1964 10.1276 45.8722 9.40682 45.1974 9.40593C44.4852 9.40679 44.2744 10.0386 44.273 10.5918C44.2736 11.3316 44.6107 12.0264 45.2683 12.0282V12.0633C44.579 12.0624 44.2381 11.3397 44.237 10.5918ZM49.5936 11.348L49.6019 11.3399V9.78259C49.6019 9.44164 49.3647 9.39211 49.2401 9.39211H49.1502V9.26739C49.3448 9.26739 49.5357 9.2838 49.7303 9.2838C49.9011 9.2838 50.0712 9.26739 50.2416 9.26739V9.39211H50.1789C50.005 9.39211 49.8095 9.42519 49.8095 9.91938V11.8096C49.8095 11.9548 49.8136 12.0999 49.8346 12.2286H49.6771L47.5385 9.84453V11.5559C47.5385 11.9173 47.6088 12.0415 47.9283 12.0415H47.9994V12.1667C47.8207 12.1667 47.6425 12.1503 47.4639 12.1503C47.2771 12.1503 47.0856 12.1667 46.8988 12.1667V12.0415H46.9572C47.2443 12.0415 47.3304 11.8468 47.3304 11.5148V9.76534C47.3304 9.53295 47.1403 9.39214 46.9529 9.39214H46.8988V9.26745C47.0565 9.26745 47.2186 9.28383 47.3761 9.28383C47.5008 9.28383 47.6209 9.26745 47.7458 9.26745L49.5936 11.348Z" fill="#211E1F"/>
<path d="M49.8342 12.2465L49.6624 12.2404L47.5558 9.89148V11.556C47.5603 11.9171 47.6153 12.0193 47.9271 12.023H48.017V12.1843H47.9988C47.8189 12.1843 47.6407 12.1676 47.4633 12.1676C47.277 12.1676 47.0864 12.1843 46.8978 12.1843H46.8806V12.023H46.9566C47.2304 12.0222 47.309 11.846 47.3124 11.5148V9.76538C47.3118 9.54422 47.1307 9.41002 46.9522 9.40974H46.8806V9.24963H46.8978C47.0571 9.24963 47.2188 9.26549 47.3755 9.26549C47.4987 9.26549 47.6185 9.24963 47.7589 9.2557L49.5831 11.3103V9.78297C49.5819 9.45241 49.3608 9.41264 49.2393 9.40976H49.1303V9.24968H49.149C49.3444 9.24968 49.5359 9.26552 49.729 9.26552C49.8995 9.26552 50.0688 9.24968 50.2409 9.24968H50.2588V9.40976H50.1781C50.0074 9.41466 49.8307 9.43021 49.8272 9.91947V11.8094C49.8272 11.9545 49.8303 12.0994 49.8506 12.2263L49.854 12.2465H49.8342V12.2465ZM49.6765 12.2102H49.8123C49.7942 12.0855 49.791 11.9473 49.791 11.8093V9.91941C49.791 9.42007 50.0004 9.37486 50.1783 9.37342H50.2232V9.28559C50.0594 9.28675 49.8953 9.30172 49.7292 9.30172C49.5403 9.30172 49.3546 9.28675 49.1666 9.28559V9.37342H49.2394C49.3681 9.37486 49.6186 9.43162 49.6186 9.78291L49.614 11.3523L49.6062 11.361L49.593 11.3742L47.7453 9.28562C47.6229 9.28562 47.5017 9.30175 47.3756 9.30175C47.2227 9.30175 47.0669 9.28677 46.9158 9.28562V9.37345H46.9524C47.1473 9.37489 47.3479 9.52204 47.3479 9.76538V11.5148C47.3479 11.8468 47.2553 12.0593 46.9567 12.0605L46.9158 12.0602V12.148C47.096 12.1472 47.2809 12.1322 47.4634 12.1322C47.6364 12.1322 47.8083 12.1472 47.9808 12.148V12.0605H47.9272C47.6013 12.0602 47.5199 11.9171 47.5199 11.5559V9.79789L49.6765 12.2102ZM49.593 11.3477L49.6062 11.3359L49.593 11.3477ZM49.5832 11.34V11.3385L49.5797 11.3353L49.5832 11.34ZM50.9082 11.5726C50.8676 11.7134 50.8172 11.8223 50.8172 11.8963C50.8172 12.0213 50.9919 12.0414 51.1281 12.0414H51.1745V12.1667C51.0084 12.1577 50.8379 12.1503 50.6718 12.1503C50.5218 12.1503 50.373 12.1578 50.2241 12.1667V12.0414H50.2477C50.4104 12.0414 50.548 11.9461 50.6093 11.7713L51.2744 9.86553C51.3279 9.71176 51.4031 9.50413 51.4273 9.3501C51.5603 9.30489 51.7261 9.22195 51.8058 9.17185C51.8176 9.16756 51.826 9.16321 51.8387 9.16321C51.8511 9.16321 51.8588 9.16321 51.8672 9.17617C51.8798 9.20899 51.8928 9.24672 51.9052 9.27983L52.6687 11.4523C52.7185 11.5974 52.7681 11.7509 52.8227 11.8759C52.8725 11.9922 52.9601 12.0414 53.0965 12.0414H53.1219V12.1667C52.9348 12.1578 52.7479 12.1503 52.5484 12.1503C52.3454 12.1503 52.1376 12.1578 51.9256 12.1667V12.0414H51.9718C52.0665 12.0414 52.2294 12.0253 52.2294 11.9214C52.2294 11.8675 52.1917 11.7555 52.1453 11.6222L51.9841 11.1404H51.0415L50.9082 11.5726ZM51.5151 9.73252H51.5067L51.1201 10.908H51.8971L51.5151 9.73252Z" fill="#211E1F"/>
<path d="M53.1205 12.1843C52.9337 12.1768 52.7472 12.1676 52.5488 12.1676C52.3464 12.1676 52.1385 12.1768 51.9266 12.1843L51.9082 12.1855V12.0236H51.9712C52.0679 12.0236 52.2111 12.0012 52.2113 11.9214C52.2122 11.8741 52.1748 11.761 52.1285 11.6279L51.9707 11.1583H51.0543L50.9259 11.5778C50.8844 11.7201 50.8349 11.8292 50.8358 11.8963C50.8358 11.9983 50.9912 12.0236 51.1286 12.0236H51.1919V12.1855L51.1735 12.1843C51.0073 12.1768 50.8374 12.1676 50.6722 12.1676C50.5234 12.1676 50.3742 12.1768 50.2245 12.1843L50.2064 12.1855V12.0236H50.2481C50.403 12.023 50.5326 11.9341 50.593 11.7656L51.2575 9.85953C51.3105 9.70547 51.3853 9.49842 51.4222 9.33341C51.5526 9.2882 51.7193 9.20527 51.7999 9.15455C51.8108 9.15081 51.8221 9.14592 51.8391 9.14592C51.85 9.14476 51.8713 9.14736 51.8845 9.1701C51.8969 9.20267 51.909 9.24037 51.9228 9.27406L52.6864 11.4462C52.7359 11.5919 52.7857 11.7454 52.8395 11.869C52.8881 11.979 52.9639 12.0225 53.0963 12.0236H53.1395V12.1855L53.1205 12.1843ZM51.9439 12.1477C52.1492 12.1399 52.3513 12.1319 52.5488 12.1319C52.7419 12.1319 52.9231 12.1399 53.1038 12.1471L53.1033 12.0604H53.0964C52.9558 12.0607 52.8577 12.0054 52.8061 11.8831C52.7514 11.7569 52.702 11.6029 52.6524 11.458L51.8883 9.28558C51.8759 9.25246 51.8633 9.21474 51.8532 9.18652C51.8497 9.18134 51.8501 9.18134 51.8468 9.18134H51.8391C51.8304 9.18134 51.8258 9.18422 51.8157 9.18709C51.7348 9.23807 51.5684 9.32097 51.4455 9.35297C51.4198 9.5102 51.3444 9.71725 51.2909 9.87131L50.6261 11.7777C50.5631 11.9579 50.418 12.0607 50.2481 12.0604H50.242V12.1471C50.3849 12.1399 50.5276 12.1319 50.6722 12.1319C50.8331 12.1319 50.9969 12.1399 51.1567 12.1471V12.0604H51.1285C50.9935 12.0587 50.804 12.044 50.7992 11.8963C50.8 11.8139 50.8515 11.7083 50.8916 11.5674L50.9086 11.5729L50.8916 11.5668L51.0283 11.1228H51.9966L52.1629 11.6164C52.2087 11.75 52.2464 11.8603 52.2464 11.9214C52.2404 12.0489 52.0662 12.0578 51.9712 12.0604H51.9439V12.1477H51.9439ZM51.0957 10.9256L51.4939 9.71437H51.5155V9.73251L51.5112 9.73337L51.5155 9.73251V9.71437H51.5285L51.9208 10.9256H51.0957ZM51.1455 10.8899H51.8716L51.5106 9.77743L51.1455 10.8899ZM51.4982 9.73772L51.5065 9.73455L51.4982 9.73772ZM54.1684 11.7595C54.1684 11.9257 54.2836 11.9752 54.4166 11.9922C54.5868 12.0049 54.7736 12.0049 54.9654 11.9838C55.1393 11.9629 55.289 11.8632 55.3632 11.7595C55.4295 11.6679 55.4669 11.5516 55.492 11.4603H55.6123C55.5668 11.697 55.5087 11.9303 55.4586 12.1667C55.0941 12.1667 54.7279 12.1503 54.3631 12.1503C53.9972 12.1503 53.6324 12.1667 53.2671 12.1667V12.0414H53.3241C53.4744 12.0414 53.6367 12.0213 53.6367 11.7636V9.62913C53.6367 9.41255 53.4743 9.39213 53.3241 9.39213H53.2671V9.26744C53.4864 9.26744 53.7026 9.28385 53.9223 9.28385C54.1348 9.28385 54.3421 9.26744 54.554 9.26744V9.39213H54.4494C54.2923 9.39213 54.1684 9.39674 54.1684 9.61617V11.7595Z" fill="#211E1F"/>
<path d="M55.4603 12.1843C55.0944 12.1843 54.7291 12.1676 54.3649 12.1676C53.9992 12.1676 53.6339 12.1843 53.268 12.1843H53.2504V12.0236H53.3258C53.4764 12.0201 53.6186 12.0098 53.6204 11.7636V9.6283C53.6186 9.42644 53.4772 9.41261 53.3258 9.40971H53.2504V9.24962H53.268C53.4888 9.24962 53.705 9.26546 53.9243 9.26546C54.1351 9.26546 54.3424 9.24962 54.5557 9.24962H54.5728V9.40971H54.4515C54.2906 9.41431 54.1904 9.40683 54.1872 9.61621V11.7596C54.1884 11.9142 54.2898 11.956 54.4193 11.9741C54.4927 11.9793 54.5696 11.9824 54.6496 11.9824C54.7512 11.9824 54.8569 11.9776 54.964 11.966C55.1333 11.9462 55.279 11.8485 55.3504 11.7495C55.4143 11.6608 55.4512 11.5468 55.4759 11.456L55.4797 11.4422H55.636L55.6322 11.4641C55.5853 11.7017 55.5283 11.9338 55.4779 12.1702L55.4745 12.1843H55.4603V12.1843ZM55.4453 12.148C55.4934 11.9228 55.5479 11.7025 55.5925 11.4779H55.5072C55.4813 11.5683 55.4445 11.6797 55.3791 11.7704C55.3017 11.8781 55.1479 11.9795 54.968 12.0017C54.8592 12.0129 54.7515 12.0187 54.6496 12.0187C54.5693 12.0187 54.4913 12.0149 54.4161 12.0097C54.2811 11.9947 54.1501 11.9372 54.1507 11.7595V9.61615C54.1507 9.38549 54.2966 9.37368 54.4515 9.37368H54.5373V9.28556C54.3326 9.28671 54.1311 9.30195 53.9243 9.30195C53.7093 9.30195 53.4991 9.28671 53.286 9.28556V9.37368H53.3258C53.4741 9.37368 53.6554 9.3996 53.6554 9.62825V11.7635C53.6554 12.0322 53.4749 12.0601 53.3258 12.0601H53.286V12.148C53.6451 12.1477 54.0041 12.1321 54.3648 12.1321C54.7256 12.1321 55.0861 12.1477 55.4453 12.148ZM55.5637 9.14935C55.8138 9.14935 56.0007 9.34172 56.0007 9.58822C56.0007 9.83357 55.8139 10.0242 55.5637 10.0242C55.3135 10.0242 55.1263 9.83357 55.1263 9.58822C55.1263 9.34174 55.3134 9.14935 55.5637 9.14935ZM55.5637 9.94271C55.7591 9.94271 55.9094 9.77568 55.9094 9.58822C55.9094 9.3996 55.7614 9.23114 55.5637 9.23114C55.367 9.23114 55.2167 9.39963 55.2167 9.58822C55.2167 9.77568 55.367 9.94271 55.5637 9.94271ZM55.346 9.81859V9.79699C55.3998 9.78951 55.4096 9.79124 55.4096 9.75783V9.43415C55.4096 9.38868 55.4047 9.37313 55.348 9.37541V9.35323H55.5717C55.6489 9.35323 55.7194 9.38981 55.7194 9.46929C55.7194 9.53437 55.6762 9.58246 55.616 9.60118L55.6877 9.70136C55.7214 9.74686 55.7591 9.78951 55.7841 9.80445V9.81856H55.699C55.6581 9.81856 55.6224 9.73246 55.5417 9.61699H55.4934V9.76241C55.4934 9.79121 55.5034 9.78948 55.5573 9.79697V9.81856H55.346V9.81859ZM55.4934 9.58822H55.5449C55.6013 9.58822 55.6278 9.54531 55.6278 9.47649C55.6278 9.4068 55.5869 9.38229 55.542 9.38229H55.4934V9.58822Z" fill="#211E1F"/>
<path d="M10.7299 14.5136C14.6957 14.5326 18.3155 11.2786 18.3155 7.31988C18.3155 2.99084 14.6957 -0.00143932 10.7299 5.19397e-07H7.31677C3.3034 -0.00143932 0 2.99174 0 7.31988C0 11.2794 3.3034 14.5326 7.31677 14.5136H10.7299Z" fill="#0079BE"/>
<path d="M7.33437 0.599854C3.66706 0.601005 0.695322 3.57428 0.694458 7.24389C0.695322 10.9129 3.66703 13.8859 7.33437 13.887C11.0025 13.8859 13.9749 10.9129 13.9754 7.24389C13.9749 3.57428 11.0025 0.601005 7.33437 0.599854ZM3.12551 7.24389C3.12897 5.45071 4.24862 3.9216 5.82749 3.31396V11.1729C4.24862 10.5656 3.12894 9.03733 3.12551 7.24389ZM8.84068 11.1746V3.3137C10.4201 3.91987 11.5415 5.44985 11.5444 7.24389C11.5415 9.03849 10.4201 10.5673 8.84068 11.1746Z" fill="white"/>
<path d="M20.6438 3.12248C20.6438 2.43593 20.2859 2.48114 19.9427 2.47369V2.27528C20.2401 2.28996 20.545 2.28996 20.843 2.28996C21.1634 2.28996 21.5984 2.27528 22.1633 2.27528C24.1389 2.27528 25.2148 3.59532 25.2148 4.94702C25.2148 5.70294 24.7726 7.60324 22.0714 7.60324C21.6825 7.60324 21.3235 7.58824 20.965 7.58824C20.6218 7.58824 20.2859 7.59576 19.9427 7.60324V7.40512C20.4002 7.35902 20.6218 7.34378 20.6437 6.82458V3.12248H20.6438ZM21.3917 6.70276C21.3917 7.29051 21.8118 7.35905 22.1855 7.35905C23.834 7.35905 24.3753 6.11473 24.3753 4.97726C24.3753 3.55037 23.4594 2.52002 21.9871 2.52002C21.6739 2.52002 21.5299 2.54248 21.3918 2.55057L21.3917 6.70276ZM25.4825 7.40515H25.627C25.8404 7.40515 25.9933 7.40515 25.9933 7.15257V5.08441C25.9933 4.74896 25.8789 4.70228 25.5965 4.55052V4.42813C25.955 4.32043 26.3828 4.17644 26.4127 4.15341C26.4666 4.12288 26.5121 4.11482 26.5504 4.11482C26.5881 4.11482 26.6039 4.16089 26.6039 4.22223V7.15257C26.6039 7.40515 26.7718 7.40515 26.9854 7.40515H27.1149V7.60356C26.8552 7.60356 26.5881 7.58833 26.314 7.58833C26.0393 7.58833 25.7644 7.59581 25.4825 7.60356V7.40515H25.4825ZM26.2987 2.93959C26.1001 2.93959 25.925 2.75647 25.925 2.55803C25.925 2.36682 26.1081 2.19087 26.2987 2.19087C26.4965 2.19087 26.6727 2.35188 26.6727 2.55803C26.6727 2.76422 26.5043 2.93959 26.2987 2.93959ZM27.8398 5.12991C27.8398 4.8477 27.7554 4.77168 27.3976 4.62654V4.48172C27.7255 4.37488 28.0379 4.27553 28.4044 4.11485C28.4271 4.11485 28.4496 4.1304 28.4496 4.19116V4.68759C28.8852 4.37488 29.2592 4.11482 29.771 4.11482C30.4188 4.11482 30.6477 4.58821 30.6477 5.18344V7.1526C30.6477 7.40515 30.8155 7.40515 31.0294 7.40515H31.1668V7.60356C30.899 7.60356 30.6322 7.58833 30.3581 7.58833C30.0831 7.58833 29.8081 7.59581 29.5338 7.60356V7.40515H29.6708C29.885 7.40515 30.0368 7.40515 30.0368 7.1526V5.17624C30.0368 4.74055 29.771 4.52716 29.3354 4.52716C29.0916 4.52716 28.7023 4.7256 28.4495 4.89375V7.15254C28.4495 7.40512 28.6182 7.40512 28.8322 7.40512H28.9692V7.60353C28.7023 7.60353 28.4349 7.58827 28.1602 7.58827C27.8858 7.58827 27.6106 7.59579 27.3362 7.60353V7.40512H27.4738C27.6875 7.40512 27.8398 7.40512 27.8398 7.15254V5.12991H27.8398ZM31.7469 5.49675C31.7311 5.56561 31.7311 5.6799 31.7469 5.93965C31.7919 6.66446 32.2585 7.25973 32.868 7.25973C33.288 7.25973 33.6168 7.03079 33.8987 6.74858L34.0052 6.85571C33.654 7.32106 33.2192 7.71785 32.5939 7.71785C31.3804 7.71785 31.1362 6.54208 31.1362 6.054C31.1362 4.55769 32.1433 4.11479 32.6771 4.11479C33.2955 4.11479 33.9597 4.50387 33.9669 5.31303C33.9669 5.35939 33.9669 5.4046 33.9597 5.45097L33.8906 5.49675H31.7469ZM33.0978 5.2523C33.288 5.2523 33.3105 5.15295 33.3105 5.06166C33.3105 4.6723 33.0741 4.35928 32.6466 4.35928C32.1816 4.35928 31.8612 4.70225 31.7696 5.2523H33.0978ZM34.1426 7.40515H34.3487C34.5617 7.40515 34.7143 7.40515 34.7143 7.15257V5.00807C34.7143 4.77165 34.4325 4.72557 34.3176 4.66452V4.55049C34.8747 4.31349 35.1802 4.11479 35.2495 4.11479C35.2947 4.11479 35.3172 4.13783 35.3172 4.21443V4.90123H35.3333C35.5236 4.60376 35.8447 4.11479 36.3096 4.11479C36.5005 4.11479 36.7444 4.24438 36.7444 4.51939C36.7444 4.72557 36.5998 4.9093 36.3862 4.9093C36.1487 4.9093 36.1487 4.72557 35.8821 4.72557C35.7523 4.72557 35.3253 4.90123 35.3253 5.35939V7.15257C35.3253 7.40512 35.4776 7.40512 35.6915 7.40512H36.1185V7.60356C35.6987 7.59576 35.3794 7.5883 35.0506 7.5883C34.738 7.5883 34.4172 7.59578 34.1426 7.60356V7.40515H34.1426ZM37.0803 6.54208C37.1797 7.04602 37.4846 7.47369 38.0419 7.47369C38.491 7.47369 38.6591 7.19896 38.6591 6.93173C38.6591 6.03096 36.9962 6.32095 36.9962 5.09219C36.9962 4.66455 37.3399 4.11482 38.1789 4.11482C38.4228 4.11482 38.7507 4.18393 39.0481 4.33684L39.1022 5.11468H38.9263C38.8503 4.63431 38.5834 4.35933 38.0946 4.35933C37.7894 4.35933 37.4998 4.53502 37.4998 4.86299C37.4998 5.75685 39.2698 5.48126 39.2698 6.6795C39.2698 7.18315 38.8652 7.71791 37.9572 7.71791C37.6521 7.71791 37.2936 7.61108 37.0267 7.45874L36.9427 6.58075L37.0803 6.54208ZM46.1596 3.65692H45.9693C45.8242 2.76422 45.1908 2.40512 44.3366 2.40512C43.4585 2.40512 42.1843 2.99255 42.1843 4.82435C42.1843 6.36728 43.2837 7.47363 44.4584 7.47363C45.2136 7.47363 45.8397 6.95471 45.9923 6.15303L46.1674 6.19853L45.9923 7.31294C45.6719 7.51193 44.8096 7.71785 44.3055 7.71785C42.5205 7.71785 41.3916 6.56514 41.3916 4.84767C41.3916 3.28285 42.7877 2.16035 44.283 2.16035C44.9009 2.16035 45.496 2.35962 46.0836 2.56581L46.1596 3.65692ZM46.4349 7.40515H46.5794C46.7933 7.40515 46.9465 7.40515 46.9465 7.15257V2.90161C46.9465 2.40515 46.8319 2.38986 46.5417 2.30606V2.18396C46.8469 2.08493 47.1673 1.94725 47.3277 1.85542C47.4109 1.80992 47.4725 1.7713 47.4949 1.7713C47.5416 1.7713 47.5568 1.81741 47.5568 1.87871V7.15257C47.5568 7.40515 47.7244 7.40515 47.9383 7.40515H48.067V7.60356C47.8087 7.60356 47.5416 7.5883 47.2666 7.5883C46.9923 7.5883 46.7176 7.59581 46.4348 7.60356V7.40515H46.4349ZM51.334 7.18313C51.334 7.32106 51.4175 7.32855 51.5471 7.32855C51.6389 7.32855 51.7529 7.32106 51.8525 7.32106V7.48175C51.5241 7.51199 50.8984 7.67238 50.7533 7.71788L50.715 7.69482V7.07715C50.2578 7.45091 49.9063 7.71788 49.3642 7.71788C48.9522 7.71788 48.525 7.45091 48.525 6.81018V4.85545C48.525 4.65704 48.4947 4.46608 48.0681 4.4281V4.28296C48.343 4.27548 48.9522 4.22966 49.0518 4.22966C49.1365 4.22966 49.1365 4.28296 49.1365 4.45085V6.41966C49.1365 6.6492 49.1365 7.30545 49.7998 7.30545C50.0592 7.30545 50.4024 7.10704 50.7225 6.84067V4.7863C50.7225 4.63426 50.3566 4.55046 50.0825 4.47383V4.33647C50.7683 4.29039 51.1964 4.22963 51.2721 4.22963C51.334 4.22963 51.334 4.28291 51.334 4.36728V7.18313H51.334ZM52.8522 4.66455C53.1571 4.40506 53.5691 4.11482 53.9891 4.11482C54.8744 4.11482 55.4079 4.88658 55.4079 5.71791C55.4079 6.71777 54.6758 7.71785 53.584 7.71785C53.0197 7.71785 52.7223 7.53442 52.5237 7.45088L52.2951 7.62596L52.1353 7.54248C52.203 7.0921 52.2418 6.6492 52.2418 6.18385V2.90158C52.2418 2.40515 52.1267 2.38986 51.837 2.30606V2.18396C52.1431 2.08493 52.4626 1.94725 52.623 1.85539C52.7071 1.80989 52.7678 1.7713 52.7914 1.7713C52.8369 1.7713 52.8522 1.81741 52.8522 1.87871V4.66452H52.8522V4.66455ZM52.8522 6.74052C52.8522 7.03079 53.1266 7.51976 53.6379 7.51976C54.4544 7.51976 54.7975 6.71777 54.7975 6.03819C54.7975 5.21402 54.1725 4.52722 53.5772 4.52722C53.2941 4.52722 53.058 4.71066 52.8522 4.88658V6.74052H52.8522ZM19.934 12.0414H19.9924C20.1415 12.0414 20.2993 12.0213 20.2993 11.805V9.6291C20.2993 9.41252 20.1415 9.3921 19.9924 9.3921H19.934V9.26741C20.096 9.26741 20.3451 9.28383 20.5492 9.28383C20.7565 9.28383 21.0052 9.26741 21.2004 9.26741V9.3921H21.142C20.9932 9.3921 20.8351 9.41255 20.8351 9.6291V11.805C20.8351 12.0213 20.9932 12.0414 21.142 12.0414H21.2004V12.1667C21.0012 12.1667 20.7516 12.1503 20.5446 12.1503C20.3411 12.1503 20.096 12.1667 19.934 12.1667V12.0414Z" fill="white"/>
<path d="M21.2003 12.1842C20.9997 12.1842 20.7509 12.1675 20.5442 12.1675C20.3412 12.1675 20.0971 12.1842 19.9338 12.1842H19.916V12.0236H19.992C20.1426 12.0201 20.2796 12.008 20.2811 11.805V9.62908C20.2796 9.42606 20.1426 9.4125 19.992 9.40965H19.916V9.24896H19.9338C20.0971 9.24896 20.3459 9.26538 20.5488 9.26538C20.7555 9.26538 21.004 9.24896 21.2003 9.24896H21.2188V9.40965H21.1422C20.9916 9.41253 20.8537 9.42606 20.8528 9.62908V11.805C20.8537 12.008 20.9916 12.0201 21.1422 12.0236H21.2187V12.1842H21.2003ZM21.1825 12.1488V12.0601H21.1422C20.9939 12.0601 20.8174 12.0345 20.8165 11.805V9.62908C20.8174 9.39957 20.9939 9.37365 21.1422 9.37365H21.1825V9.28553C20.9907 9.28553 20.7503 9.30166 20.5488 9.30166C20.3516 9.30166 20.1129 9.28669 19.9523 9.28553V9.37365H19.992C20.14 9.37365 20.317 9.39957 20.317 9.62908V11.805C20.317 12.0345 20.14 12.0601 19.992 12.0601H19.9523V12.1488C20.1129 12.1471 20.3475 12.1321 20.5442 12.1321C20.7463 12.1321 20.9867 12.1476 21.1825 12.1488ZM24.0526 11.348L24.0609 11.3399V9.78257C24.0609 9.44161 23.824 9.39208 23.6996 9.39208H23.608V9.26736C23.8035 9.26736 23.9944 9.28378 24.1893 9.28378C24.3594 9.28378 24.5305 9.26736 24.7003 9.26736V9.39208H24.6381C24.4634 9.39208 24.2682 9.42517 24.2682 9.91935V11.8096C24.2682 11.9547 24.2725 12.0998 24.2929 12.2286H24.1349L21.9972 9.84451V11.5559C21.9972 11.9173 22.0672 12.0414 22.3873 12.0414H22.4575V12.1667C22.2794 12.1667 22.1011 12.1503 21.9223 12.1503C21.736 12.1503 21.5449 12.1667 21.3578 12.1667V12.0414H21.4159C21.7024 12.0414 21.7894 11.8467 21.7894 11.5147V9.76532C21.7894 9.53293 21.5979 9.39211 21.4119 9.39211H21.3578V9.26742C21.5155 9.26742 21.6774 9.28381 21.8349 9.28381C21.9595 9.28381 22.0802 9.26742 22.2045 9.26742L24.0526 11.348Z" fill="white"/>
<path d="M24.2933 12.2468L24.122 12.2404L22.0151 9.89147V11.5559C22.02 11.917 22.075 12.0196 22.3876 12.0236H22.4766V12.1843H22.4582C22.2785 12.1843 22.0997 12.1676 21.9226 12.1676C21.7366 12.1676 21.5461 12.1843 21.3578 12.1843H21.3396V12.0236H21.4162C21.6906 12.0222 21.7689 11.8459 21.7721 11.5148V9.76563C21.7715 9.54446 21.5901 9.41027 21.4122 9.40969H21.3396V9.24958H21.3577C21.5164 9.24958 21.679 9.26542 21.8348 9.26542C21.9583 9.26542 22.0787 9.24958 22.2186 9.25563L24.0433 11.3103V9.78293C24.041 9.45234 23.8208 9.4126 23.6998 9.40969H23.5898V9.24958H23.6083C23.8044 9.24958 23.9955 9.26542 24.1895 9.26542C24.3585 9.26542 24.5287 9.24958 24.7003 9.24958H24.7184V9.40967H24.6384C24.4671 9.41459 24.2912 9.42954 24.2863 9.91937V11.8093C24.2863 11.9545 24.2906 12.0996 24.3108 12.2254L24.3148 12.2467H24.2933V12.2468ZM24.1355 12.2102H24.2728C24.2542 12.0855 24.251 11.9473 24.251 11.8093V9.91937C24.251 9.4209 24.4597 9.3737 24.6385 9.3737H24.6822V9.28555C24.5187 9.2867 24.3546 9.30168 24.1897 9.30168C23.9996 9.30168 23.8148 9.2867 23.6268 9.28555L23.6265 9.3737H23.6999C23.8275 9.3737 24.0794 9.43069 24.0794 9.7829L24.0736 11.3523L24.0653 11.361L24.0512 11.3739L22.2049 9.28555C22.0817 9.28555 21.9613 9.30168 21.8349 9.30168C21.6826 9.30168 21.5269 9.2867 21.3763 9.28555L21.3754 9.37367H21.4123C21.6072 9.37367 21.8073 9.52255 21.8073 9.7656V11.5147C21.8073 11.8467 21.7149 12.0592 21.4163 12.0604L21.3763 12.0592V12.1488C21.5562 12.1471 21.7411 12.1321 21.9227 12.1321C22.096 12.1321 22.2685 12.1471 22.44 12.1488V12.0604H22.3877C22.0609 12.0592 21.9797 11.917 21.9794 11.5559V9.79782L24.1355 12.2102ZM24.0529 11.3477L24.0661 11.3356L24.0529 11.3477ZM24.0434 11.3397V11.3382L24.0399 11.3353L24.0434 11.3397ZM25.3222 9.47475C25.0104 9.47475 24.9986 9.54965 24.9365 9.85256H24.8118C24.8282 9.73651 24.8489 9.62046 24.8616 9.49951C24.8783 9.38317 24.8863 9.26738 24.8863 9.14704H24.9862C25.0196 9.27173 25.1233 9.26741 25.2359 9.26741H27.3776C27.4898 9.26741 27.5935 9.26338 27.6021 9.13843L27.7012 9.15513C27.685 9.26741 27.6683 9.37946 27.6557 9.49174C27.6482 9.60379 27.6482 9.71607 27.6482 9.8278L27.5232 9.87416C27.5146 9.72067 27.4939 9.47475 27.216 9.47475H26.5352V11.6846C26.5352 12.0048 26.6806 12.0414 26.8792 12.0414H26.9584V12.1667C26.7966 12.1667 26.5055 12.1503 26.2818 12.1503C26.0328 12.1503 25.7417 12.1667 25.5796 12.1667V12.0414H25.6588C25.8877 12.0414 26.0034 12.021 26.0034 11.6933V9.47475H25.3222Z" fill="white"/>
<path d="M26.9598 12.1842C26.7962 12.1842 26.5058 12.1675 26.2826 12.1675C26.0339 12.1675 25.7434 12.1842 25.5804 12.1842H25.5632V12.0235H25.6596C25.8885 12.0181 25.9806 12.0152 25.9858 11.6932V9.49288H25.3231V9.45628H26.0218V11.6932C26.0218 12.0264 25.8877 12.0601 25.6596 12.0604H25.5986V12.1479C25.7624 12.1471 26.0417 12.1321 26.2827 12.1321C26.4992 12.1321 26.7767 12.1471 26.9408 12.1479V12.0604H26.8801C26.6794 12.0601 26.5179 12.0108 26.5179 11.6846V9.45628H27.2169C27.4956 9.45743 27.5319 9.69443 27.5411 9.84849L27.6306 9.81537C27.6306 9.7071 27.6312 9.59853 27.6387 9.48911C27.6508 9.38227 27.666 9.2763 27.6816 9.17032L27.6182 9.15967C27.599 9.28062 27.4823 9.28666 27.3778 9.28551H25.2151C25.1175 9.28551 25.0107 9.2809 24.9735 9.16488H24.905C24.9046 9.27761 24.8964 9.39017 24.8805 9.50178C24.8684 9.61584 24.8494 9.72556 24.8339 9.83527H24.9229C24.9775 9.54584 25.0133 9.45196 25.323 9.45631V9.49288C25.0161 9.49835 25.0225 9.55018 24.9548 9.85716L24.9517 9.87127H24.7919L24.7942 9.84967C24.8109 9.73333 24.8319 9.61754 24.8443 9.49659C24.8615 9.38141 24.8696 9.26622 24.8696 9.147V9.12886H25.0012L25.0041 9.14182C25.0326 9.24664 25.1094 9.24721 25.2151 9.24894H27.3778C27.4936 9.24721 27.5776 9.24548 27.5848 9.13689L27.5865 9.11731L27.6053 9.12134L27.7224 9.1398L27.7198 9.15794C27.7031 9.2691 27.6867 9.38141 27.6746 9.49285C27.6663 9.60343 27.6663 9.71574 27.6663 9.82776V9.84072L27.6548 9.84532L27.5077 9.89886L27.5065 9.87467C27.4956 9.71859 27.4792 9.49282 27.2169 9.49282H26.5541V11.6846C26.5579 11.9979 26.6822 12.0195 26.88 12.0235H26.9773V12.1842L26.9598 12.1842ZM27.8347 12.0414H27.8932C28.0424 12.0414 28.2004 12.0212 28.2004 11.805V9.62906C28.2004 9.41248 28.0424 9.39206 27.8932 9.39206H27.8347V9.26737C28.0875 9.26737 28.52 9.28378 28.868 9.28378C29.2175 9.28378 29.6485 9.26737 29.9306 9.26737C29.9238 9.44562 29.9275 9.72035 29.9399 9.90266L29.8146 9.93603C29.7948 9.66624 29.7449 9.45055 29.3088 9.45055H28.7321V10.5382H29.2256C29.4746 10.5382 29.5291 10.3974 29.5535 10.1725H29.6779C29.6699 10.3352 29.6655 10.4971 29.6655 10.6589C29.6655 10.817 29.6698 10.9745 29.6779 11.1323L29.5535 11.1571C29.5291 10.908 29.5164 10.7461 29.2296 10.7461H28.7322V11.7134C28.7322 11.9838 28.972 11.9838 29.238 11.9838C29.7363 11.9838 29.956 11.9501 30.0807 11.4773L30.197 11.5058C30.1426 11.7264 30.0931 11.9461 30.0562 12.1667C29.7902 12.1667 29.3126 12.1503 28.9394 12.1503C28.5652 12.1503 28.0715 12.1667 27.8347 12.1667V12.0414Z" fill="white"/>
<path d="M30.0558 12.1843C29.7892 12.1843 29.3119 12.1672 28.9391 12.1672C28.5651 12.1672 28.0716 12.1843 27.8347 12.1843H27.8171V12.0236H27.8929C28.0434 12.0213 28.1799 12.008 28.1819 11.805V9.62909C28.1799 9.42636 28.0434 9.41282 27.8929 9.40966H27.8171V9.24957H27.8347C28.088 9.24957 28.5199 9.26541 28.868 9.26541C29.2172 9.26541 29.6479 9.24957 29.9306 9.24957H29.9493L29.9484 9.268C29.9455 9.33049 29.9444 9.40418 29.9444 9.48254C29.9444 9.62621 29.9484 9.78315 29.9568 9.90153L29.9574 9.91651L29.9436 9.92057L29.7976 9.95858L29.7968 9.93727C29.7723 9.66773 29.7363 9.4722 29.3088 9.46817H28.7494L28.7488 10.5195H29.2256C29.4646 10.5172 29.5074 10.3949 29.5357 10.1711L29.5371 10.1547H29.6963L29.696 10.1734C29.688 10.3352 29.6828 10.4971 29.6828 10.6589C29.6828 10.8161 29.688 10.9736 29.696 11.1317L29.6963 11.1465L29.6814 11.1499L29.5371 11.1787L29.5357 11.1591C29.5072 10.9057 29.5051 10.7669 29.2293 10.7637L28.7494 10.7634V11.7134C28.7497 11.9657 28.9673 11.9643 29.238 11.9657C29.7377 11.9628 29.9381 11.9387 30.0634 11.4721L30.0674 11.4554L30.085 11.4586L30.218 11.4928L30.214 11.5101C30.1604 11.7301 30.1106 11.9496 30.0734 12.1695L30.07 12.1843H30.0558ZM30.0406 12.148C30.0766 11.9386 30.124 11.7284 30.1751 11.5193L30.093 11.4986C29.9686 11.9634 29.7279 12.0048 29.2379 12.0017C28.9765 12.0017 28.7145 12.0017 28.7133 11.7134V10.728H29.2293C29.5192 10.7248 29.5489 10.8999 29.5693 11.1363L29.6591 11.1176C29.6512 10.9648 29.6472 10.8119 29.6473 10.6589C29.6473 10.5025 29.651 10.347 29.6591 10.1906H29.5693C29.5463 10.4069 29.4786 10.5589 29.2256 10.5561H28.7134V9.43183H29.3088C29.7406 9.42892 29.8123 9.65184 29.8307 9.91302L29.9203 9.88883C29.9131 9.77163 29.9081 9.62131 29.9081 9.48251C29.9081 9.41138 29.9099 9.34429 29.9122 9.28554C29.6301 9.28669 29.2097 9.30167 28.868 9.30167C28.5268 9.30167 28.1068 9.28669 27.8526 9.28554V9.37366H27.8928C28.0408 9.37366 28.2176 9.39958 28.2182 9.62909V11.805C28.2176 12.0339 28.0408 12.0593 27.8928 12.0604H27.8526V12.148C28.0947 12.1477 28.5744 12.1321 28.9391 12.1321C29.3053 12.1321 29.7728 12.1477 30.0406 12.148ZM30.7573 9.70741C30.7573 9.40447 30.5915 9.39209 30.4622 9.39209H30.3876V9.26711C30.5206 9.26711 30.7777 9.28381 31.0311 9.28381C31.2801 9.28381 31.4796 9.26711 31.6993 9.26711C32.2221 9.26711 32.6877 9.4085 32.6877 9.99884C32.6877 10.3718 32.4387 10.6004 32.1107 10.7297L32.8204 11.7923C32.9367 11.968 33.0193 12.0172 33.2232 12.0414V12.1667C33.0861 12.1667 32.9531 12.1503 32.8163 12.1503C32.6877 12.1503 32.5543 12.1667 32.4262 12.1667C32.1066 11.7471 31.832 11.2984 31.5622 10.8204H31.289V11.7097C31.289 12.0299 31.4379 12.0414 31.6287 12.0414H31.7036V12.1667C31.4664 12.1667 31.2266 12.1503 30.9896 12.1503C30.7901 12.1503 30.5949 12.1667 30.3876 12.1667V12.0414H30.4622C30.6165 12.0414 30.7573 11.9717 30.7573 11.8177V9.70741ZM31.289 10.671H31.4917C31.9071 10.671 32.1308 10.5132 32.1308 10.023C32.1308 9.65385 31.8945 9.41685 31.5245 9.41685C31.3999 9.41685 31.3469 9.42981 31.289 9.43356V10.671H31.289Z" fill="white"/>
<path d="M33.2231 12.1843C33.0841 12.1843 32.9519 12.1676 32.8155 12.1676C32.6888 12.1676 32.5563 12.1843 32.4116 12.1774C32.0931 11.7595 31.8202 11.3135 31.5519 10.8389H31.3066V11.7092C31.3109 12.0216 31.4364 12.019 31.6284 12.0236H31.7214V12.1843H31.703C31.4657 12.1843 31.2248 12.1676 30.989 12.1676C30.7906 12.1676 30.596 12.1843 30.3876 12.1843H30.3694V12.0236H30.4621C30.6118 12.0228 30.7379 11.9577 30.7385 11.8177V9.70753C30.7354 9.41265 30.5911 9.41435 30.4621 9.41006H30.3694V9.24908H30.3876C30.522 9.24908 30.7782 9.26547 31.031 9.26547C31.2789 9.26547 31.4784 9.24908 31.6996 9.24908C32.2227 9.25024 32.7046 9.3948 32.706 9.9978C32.706 10.373 32.4582 10.6071 32.1377 10.7379L32.8353 11.7826C32.9513 11.9548 33.0236 11.9977 33.2257 12.0236L33.2409 12.0259V12.1843H33.2231V12.1843ZM31.2885 10.8026H31.5723L31.5772 10.8118C31.8478 11.289 32.1204 11.737 32.4262 12.1488C32.5529 12.1488 32.6862 12.1319 32.8155 12.1319C32.9482 12.1319 33.076 12.1463 33.2053 12.1483V12.0573C33.0103 12.0331 32.9191 11.9749 32.8057 11.8024L32.0833 10.7211L32.1037 10.7127C32.4285 10.5849 32.6689 10.3629 32.6692 9.99769C32.6689 9.42146 32.2215 9.28787 31.6996 9.28557C31.4804 9.28557 31.2812 9.30198 31.031 9.30198C30.7872 9.30198 30.541 9.28672 30.4051 9.28557V9.37369H30.4621C30.5911 9.37401 30.7748 9.39529 30.7748 9.70747V11.8177C30.7748 11.9844 30.6184 12.0604 30.4621 12.0607H30.4051V12.1482C30.6049 12.1477 30.7941 12.1319 30.989 12.1319C31.2213 12.1319 31.4554 12.1477 31.6852 12.1482V12.0607H31.6284C31.439 12.0604 31.2703 12.0368 31.2703 11.7091V10.8026H31.2884H31.2885ZM31.2885 10.6886H31.2703V9.41688L31.2861 9.41544C31.3428 9.41115 31.399 9.39932 31.5245 9.39932C31.9028 9.39932 32.1487 9.64524 32.1492 10.0239C32.1481 10.5198 31.9103 10.6882 31.4917 10.6885H31.2885V10.6886ZM31.4917 10.6529C31.9028 10.6494 32.1095 10.5066 32.1138 10.0239C32.1115 9.66108 31.8861 9.43589 31.5245 9.43445C31.4122 9.43445 31.3595 9.44482 31.3065 9.44945V10.6529H31.4917ZM36.042 11.348L36.0495 11.3399V9.7826C36.0495 9.44165 35.8131 9.39212 35.6888 9.39212H35.5978V9.2674C35.7927 9.2674 35.9833 9.28381 36.1788 9.28381C36.3492 9.28381 36.5188 9.2674 36.6901 9.2674V9.39212H36.6276C36.4532 9.39212 36.2579 9.42521 36.2579 9.91939V11.8096C36.2579 11.9548 36.262 12.0999 36.2824 12.2286H36.125L33.987 9.84455V11.5559C33.987 11.9173 34.0575 12.0415 34.3771 12.0415H34.4476V12.1667C34.2694 12.1667 34.0906 12.1503 33.9124 12.1503C33.7249 12.1503 33.5341 12.1667 33.3475 12.1667V12.0415H33.4051C33.6919 12.0415 33.7791 11.8468 33.7791 11.5148V9.76535C33.7791 9.53296 33.5882 9.39215 33.4017 9.39215H33.3475V9.26746C33.5048 9.26746 33.6674 9.28384 33.8249 9.28384C33.9487 9.28384 34.0696 9.26746 34.1943 9.26746L36.042 11.348Z" fill="white"/>
<path d="M36.2824 12.2465L36.1115 12.2407L34.0043 9.89151V11.5557C34.0092 11.9171 34.0639 12.0196 34.3771 12.0236H34.465V12.1843H34.4468C34.2672 12.1843 34.0892 12.1673 33.9113 12.1673C33.7259 12.1673 33.5342 12.1843 33.3473 12.1843H33.3286V12.0236H33.4049C33.679 12.0225 33.7576 11.846 33.7602 11.5136V9.76538C33.7599 9.54419 33.5788 9.41003 33.4015 9.40971H33.3286V9.24905H33.3473C33.5057 9.24905 33.6681 9.26544 33.8247 9.26544C33.9467 9.26544 34.0671 9.24905 34.2064 9.25478L36.0315 11.3103V9.78234C36.0303 9.45233 35.8092 9.41144 35.6886 9.40974H35.5788V9.24905H35.597C35.7934 9.24905 35.9845 9.26544 36.1785 9.26544C36.3479 9.26544 36.518 9.24905 36.689 9.24905H36.7071V9.40974H36.6274C36.4561 9.41435 36.2796 9.42958 36.2753 9.91945V11.8094C36.2753 11.9545 36.279 12.0985 36.3 12.2263L36.3023 12.2465H36.2824ZM36.1247 12.2102H36.2612C36.243 12.0855 36.239 11.9473 36.239 11.8094V9.91942C36.2393 9.42091 36.4495 9.37487 36.6274 9.37343H36.6708V9.2856C36.5079 9.28675 36.3435 9.30172 36.1785 9.30172C35.988 9.30172 35.8028 9.28675 35.6148 9.2856V9.37343H35.6885C35.8163 9.37487 36.068 9.43073 36.068 9.78234L36.0623 11.3524L36.0542 11.361L36.0415 11.3742L34.1938 9.28562C34.0705 9.28562 33.9502 9.30175 33.8247 9.30175C33.671 9.30175 33.5158 9.28678 33.3646 9.28562V9.37345H33.4014C33.5964 9.37489 33.7965 9.52205 33.7965 9.76538V11.5136C33.7965 11.8471 33.7026 12.0593 33.4049 12.0605L33.3646 12.0602V12.148C33.544 12.1472 33.7291 12.1322 33.9114 12.1322C34.0856 12.1322 34.258 12.1472 34.4296 12.148V12.0605H34.3772C34.0501 12.0602 33.9684 11.9171 33.9678 11.5557V9.79847L36.1247 12.2102ZM36.0418 11.3477L36.0544 11.3359L36.0418 11.3477ZM36.0314 11.34V11.3385L36.0282 11.3354L36.0314 11.34ZM37.3576 11.5727C37.3156 11.7135 37.2655 11.8223 37.2655 11.8963C37.2655 12.0213 37.4402 12.0415 37.5767 12.0415H37.623V12.1667C37.4567 12.1578 37.287 12.1503 37.1198 12.1503C36.9704 12.1503 36.8218 12.1578 36.6721 12.1667V12.0415H36.6971C36.8589 12.0415 36.9963 11.9461 37.0576 11.7713L37.7226 9.86554C37.7762 9.71176 37.8516 9.50414 37.8767 9.3501C38.0089 9.30489 38.1753 9.22195 38.2539 9.17185C38.2668 9.16756 38.274 9.16321 38.287 9.16321C38.2994 9.16321 38.3074 9.16321 38.3166 9.17617C38.3287 9.20899 38.3408 9.24672 38.3541 9.27984L39.1178 11.4523C39.1676 11.5974 39.2168 11.7509 39.2707 11.8759C39.3208 11.9922 39.4083 12.0415 39.5457 12.0415H39.5701V12.1667C39.3833 12.1578 39.1962 12.1503 38.9975 12.1503C38.794 12.1503 38.5858 12.1578 38.3742 12.1667V12.0415H38.4203C38.5153 12.0415 38.6777 12.0253 38.6777 11.9214C38.6777 11.8675 38.6402 11.7555 38.5939 11.6222L38.4324 11.1404H37.4901L37.3576 11.5727ZM37.9633 9.73252H37.955L37.5689 10.908H38.3448L37.9633 9.73252Z" fill="white"/>
<path d="M39.5679 12.1843C39.3811 12.1759 39.1942 12.1673 38.9965 12.1673C38.7929 12.1673 38.5862 12.1759 38.3737 12.1843L38.355 12.1854V12.023H38.4189C38.5151 12.023 38.6579 12.0011 38.6579 11.9214C38.659 11.8741 38.6216 11.7601 38.5758 11.628L38.4177 11.1583H37.502L37.373 11.5778C37.3309 11.7195 37.2812 11.8292 37.2814 11.8969C37.2828 11.9983 37.438 12.023 37.5756 12.023H37.6396V12.1854L37.6209 12.1843C37.4547 12.1759 37.2852 12.1673 37.1196 12.1673C36.9708 12.1673 36.8211 12.1759 36.6722 12.1843L36.653 12.1854V12.023H36.6959C36.8504 12.0224 36.9794 11.9346 37.0393 11.7656L37.7041 9.85953C37.7585 9.70547 37.8334 9.49842 37.8693 9.33284C37.9995 9.28878 38.1661 9.20527 38.2462 9.15458C38.2577 9.15084 38.2693 9.14508 38.2863 9.14508C38.2963 9.14479 38.3188 9.14738 38.332 9.1693C38.3438 9.20354 38.3568 9.24043 38.3694 9.27412L39.1341 11.4463C39.1831 11.592 39.2326 11.7455 39.2867 11.8682C39.3348 11.979 39.4111 12.0225 39.5447 12.0231H39.587V12.1855L39.5679 12.1843ZM38.3913 12.1471C38.5968 12.1399 38.7981 12.1319 38.9965 12.1319C39.1893 12.1319 39.3698 12.1399 39.5503 12.1471V12.0604H39.5446C39.4024 12.0613 39.3042 12.0055 39.2532 11.8831C39.1991 11.7569 39.1484 11.6029 39.0998 11.4574L38.3354 9.28558C38.3228 9.25246 38.3107 9.21474 38.2997 9.18537C38.2963 9.18134 38.2971 9.18133 38.2937 9.18133H38.2861C38.2775 9.18133 38.2726 9.18393 38.262 9.18681C38.182 9.23893 38.0153 9.32042 37.8923 9.35296C37.8667 9.5102 37.7921 9.71753 37.738 9.87131L37.0735 11.7777C37.0102 11.9579 36.8648 12.0607 36.6958 12.0604H36.6892V12.1471C36.8314 12.1399 36.9753 12.1319 37.1196 12.1319C37.2799 12.1319 37.4441 12.1399 37.6024 12.1471V12.0604H37.5756C37.4406 12.0587 37.2517 12.0434 37.2466 11.8969C37.2468 11.8139 37.2978 11.7077 37.3384 11.5675L37.3565 11.5729L37.3384 11.5668L37.4751 11.1228H38.4431L38.6097 11.6164C38.6564 11.7497 38.6941 11.8603 38.6941 11.9214C38.6884 12.0489 38.513 12.0579 38.4189 12.0605H38.3912V12.1471H38.3913ZM37.5425 10.9258L37.9401 9.71434H37.9626V9.73248L37.958 9.73334L37.9626 9.73248V9.71434H37.975L38.3691 10.9258H37.5425ZM37.5923 10.8898H38.319L37.9576 9.77683L37.5923 10.8898ZM37.9444 9.73769L37.9539 9.73452L37.9444 9.73769ZM39.7517 9.47475C39.4401 9.47475 39.4278 9.54965 39.3652 9.85256H39.2406C39.257 9.73651 39.278 9.62046 39.291 9.49951C39.3076 9.38317 39.3152 9.26738 39.3152 9.14704H39.4154C39.4485 9.27173 39.5527 9.26741 39.6641 9.26741H41.807C41.9184 9.26741 42.0221 9.26338 42.0307 9.13843L42.13 9.15513C42.1142 9.26741 42.0978 9.37946 42.0851 9.49174C42.0762 9.60379 42.0762 9.71607 42.0762 9.8278L41.9518 9.87416C41.944 9.72067 41.9233 9.47475 41.6449 9.47475H40.964V11.6846C40.964 12.0049 41.1097 12.0415 41.3084 12.0415H41.3872V12.1667C41.2254 12.1667 40.9352 12.1503 40.7106 12.1503C40.4619 12.1503 40.1708 12.1667 40.009 12.1667V12.0415H40.0876C40.3165 12.0415 40.4328 12.021 40.4328 11.6933V9.47475H39.7517Z" fill="white"/>
<path d="M41.3873 12.1843C41.2243 12.1843 40.9335 12.1676 40.7107 12.1676C40.4625 12.1676 40.1717 12.1843 40.009 12.1843H39.9906V12.0236H40.0876C40.3165 12.0181 40.4084 12.0152 40.4141 11.6933L40.4135 9.49291H39.7516V9.45631H40.4501V11.6933C40.4501 12.0264 40.3156 12.0593 40.0876 12.0601H40.0266V12.1488C40.191 12.1471 40.4697 12.1321 40.7107 12.1321C40.9274 12.1321 41.205 12.1471 41.3691 12.1488V12.0601H41.3078C41.1082 12.0593 40.9464 12.0112 40.9459 11.6846V9.45631H41.6449C41.9236 9.45746 41.9601 9.69446 41.968 9.84853L42.0586 9.81541C42.0586 9.70713 42.0589 9.59857 42.067 9.48972C42.0785 9.38288 42.094 9.27633 42.1093 9.17033L42.0465 9.15967C42.0275 9.28062 41.9104 9.28727 41.807 9.28552H39.6431C39.5452 9.28667 39.4393 9.28091 39.4015 9.16428H39.3336C39.3324 9.27947 39.3247 9.39123 39.3082 9.50181C39.2973 9.61613 39.2769 9.72614 39.2613 9.83528H39.3503C39.4053 9.54584 39.4413 9.45196 39.7516 9.45631V9.49288C39.4439 9.4981 39.4508 9.55019 39.3828 9.85717L39.3796 9.87128H39.2195L39.2221 9.85051C39.2394 9.73334 39.2601 9.61755 39.2722 9.49746C39.2892 9.38141 39.2973 9.26622 39.2973 9.147V9.12886H39.4285L39.432 9.14182C39.4611 9.24664 39.5368 9.24722 39.643 9.24894L39.664 9.24952H41.807C41.9215 9.24725 42.0053 9.24549 42.0125 9.13724L42.0137 9.11737L42.0332 9.12143L42.151 9.13986L42.1479 9.158C42.1309 9.26916 42.115 9.38147 42.1024 9.49291C42.094 9.60349 42.094 9.71609 42.094 9.82782V9.84078L42.0822 9.84539L41.9351 9.89895L41.9343 9.87473C41.9236 9.71868 41.9072 9.49288 41.6449 9.49288H40.9819V11.6846C40.9862 11.9979 41.1103 12.0195 41.3078 12.0236H41.4051V12.1842L41.3873 12.1843ZM42.2833 12.0414H42.3415C42.4915 12.0414 42.6484 12.0213 42.6484 11.805V9.62909C42.6484 9.41251 42.4915 9.39209 42.3415 9.39209H42.2833V9.2674C42.4455 9.2674 42.6942 9.28382 42.8972 9.28382C43.1056 9.28382 43.3547 9.2674 43.5498 9.2674V9.39209H43.4917C43.3423 9.39209 43.1839 9.41254 43.1839 9.62909V11.805C43.1839 12.0213 43.3423 12.0414 43.4917 12.0414H43.5498V12.1667C43.3503 12.1667 43.101 12.1503 42.894 12.1503C42.6902 12.1503 42.4455 12.1667 42.2833 12.1667V12.0414Z" fill="white"/>
<path d="M43.5495 12.1843C43.3489 12.1843 43.1004 12.1673 42.8934 12.1673C42.6904 12.1673 42.4452 12.1843 42.2831 12.1843H42.265V12.0236H42.3412C42.4912 12.0213 42.6289 12.0084 42.6294 11.8051V9.62915C42.6289 9.42642 42.4912 9.41257 42.3412 9.40972H42.265V9.24964H42.2831C42.4452 9.24964 42.6945 9.26548 42.8969 9.26548C43.1039 9.26548 43.3529 9.24964 43.5495 9.24964H43.5671V9.40972H43.4914C43.3397 9.4126 43.2035 9.42642 43.2015 9.62915V11.8051C43.2035 12.0084 43.3397 12.0213 43.4914 12.0236H43.5671V12.1843H43.5495ZM43.5309 12.148V12.0602H43.4914C43.3425 12.0602 43.1664 12.034 43.1664 11.8051V9.62915C43.1664 9.39964 43.3425 9.37372 43.4914 9.37372H43.5309V9.2856C43.3391 9.28676 43.0993 9.30173 42.8969 9.30173C42.7002 9.30173 42.4621 9.28676 42.3012 9.2856V9.37372H42.3413C42.4889 9.37372 42.6657 9.39964 42.6663 9.62915V11.8051C42.6657 12.034 42.4889 12.0602 42.3413 12.0602H42.3012V12.148C42.4613 12.1463 42.6963 12.1322 42.8934 12.1322C43.0947 12.1322 43.3351 12.1472 43.5308 12.148H43.5309ZM45.2051 9.20526C46.0902 9.20526 46.7955 9.75413 46.7955 10.6385C46.7955 11.594 46.1106 12.2289 45.2267 12.2289C44.3457 12.2289 43.6738 11.6308 43.6738 10.7378C43.6738 9.87421 44.3417 9.20526 45.2051 9.20526ZM45.2679 12.0461C46.0734 12.0461 46.2137 11.3354 46.2137 10.7298C46.2137 10.1227 45.8866 9.38783 45.1971 9.38783C44.4704 9.38783 44.2548 10.0358 44.2548 10.5918C44.2548 11.3354 44.5951 12.0461 45.2679 12.0461Z" fill="white"/>
<path d="M43.6554 10.7378C43.6572 9.86409 44.3332 9.18822 45.2052 9.18707V9.22275C44.3519 9.22275 43.6914 9.88309 43.6906 10.7378C43.6926 11.6207 44.355 12.2099 45.2268 12.2101C46.102 12.2099 46.7772 11.5838 46.7786 10.6376C46.7777 9.76445 46.083 9.2239 45.2052 9.22275V9.18707C46.0971 9.18765 46.812 9.74199 46.8137 10.6376C46.8129 11.6031 46.119 12.2447 45.2268 12.2464C44.3389 12.2447 43.6572 11.6405 43.6555 10.7378H43.6554V10.7378ZM44.237 10.5918C44.2381 10.0332 44.4564 9.36907 45.1974 9.36907C45.9022 9.37083 46.2313 10.1195 46.2324 10.7297C46.2313 11.3353 46.0888 12.0633 45.2683 12.0633V12.0282C46.0577 12.0271 46.1945 11.3353 46.1964 10.7297C46.1964 10.1276 45.8722 9.40682 45.1974 9.40593C44.4852 9.40679 44.2744 10.0386 44.273 10.5918C44.2736 11.3316 44.6107 12.0264 45.2683 12.0282V12.0633C44.579 12.0624 44.2381 11.3397 44.237 10.5918ZM49.5936 11.348L49.6019 11.3399V9.78259C49.6019 9.44164 49.3647 9.39211 49.2401 9.39211H49.1502V9.26739C49.3448 9.26739 49.5357 9.2838 49.7303 9.2838C49.9011 9.2838 50.0712 9.26739 50.2416 9.26739V9.39211H50.1789C50.005 9.39211 49.8095 9.42519 49.8095 9.91938V11.8096C49.8095 11.9548 49.8136 12.0999 49.8346 12.2286H49.6771L47.5385 9.84453V11.5559C47.5385 11.9173 47.6088 12.0415 47.9283 12.0415H47.9994V12.1667C47.8207 12.1667 47.6425 12.1503 47.4639 12.1503C47.2771 12.1503 47.0856 12.1667 46.8988 12.1667V12.0415H46.9572C47.2443 12.0415 47.3304 11.8468 47.3304 11.5148V9.76534C47.3304 9.53295 47.1403 9.39214 46.9529 9.39214H46.8988V9.26745C47.0565 9.26745 47.2186 9.28383 47.3761 9.28383C47.5008 9.28383 47.6209 9.26745 47.7458 9.26745L49.5936 11.348Z" fill="white"/>
<path d="M49.8342 12.2465L49.6624 12.2404L47.5558 9.89148V11.556C47.5603 11.9171 47.6153 12.0193 47.9271 12.023H48.017V12.1843H47.9988C47.8189 12.1843 47.6407 12.1676 47.4633 12.1676C47.277 12.1676 47.0864 12.1843 46.8978 12.1843H46.8806V12.023H46.9566C47.2304 12.0222 47.309 11.846 47.3124 11.5148V9.76538C47.3118 9.54422 47.1307 9.41002 46.9522 9.40974H46.8806V9.24963H46.8978C47.0571 9.24963 47.2188 9.26549 47.3755 9.26549C47.4987 9.26549 47.6185 9.24963 47.7589 9.2557L49.5831 11.3103V9.78297C49.5819 9.45241 49.3608 9.41264 49.2393 9.40976H49.1303V9.24968H49.149C49.3444 9.24968 49.5359 9.26552 49.729 9.26552C49.8995 9.26552 50.0688 9.24968 50.2409 9.24968H50.2588V9.40976H50.1781C50.0074 9.41466 49.8307 9.43021 49.8272 9.91947V11.8094C49.8272 11.9545 49.8303 12.0994 49.8506 12.2263L49.854 12.2465H49.8342V12.2465ZM49.6765 12.2102H49.8123C49.7942 12.0855 49.791 11.9473 49.791 11.8093V9.91941C49.791 9.42007 50.0004 9.37486 50.1783 9.37342H50.2232V9.28559C50.0594 9.28675 49.8953 9.30172 49.7292 9.30172C49.5403 9.30172 49.3546 9.28675 49.1666 9.28559V9.37342H49.2394C49.3681 9.37486 49.6186 9.43162 49.6186 9.78291L49.614 11.3523L49.6062 11.361L49.593 11.3742L47.7453 9.28562C47.6229 9.28562 47.5017 9.30175 47.3756 9.30175C47.2227 9.30175 47.0669 9.28677 46.9158 9.28562V9.37345H46.9524C47.1473 9.37489 47.3479 9.52204 47.3479 9.76538V11.5148C47.3479 11.8468 47.2553 12.0593 46.9567 12.0605L46.9158 12.0602V12.148C47.096 12.1472 47.2809 12.1322 47.4634 12.1322C47.6364 12.1322 47.8083 12.1472 47.9808 12.148V12.0605H47.9272C47.6013 12.0602 47.5199 11.9171 47.5199 11.5559V9.79789L49.6765 12.2102ZM49.593 11.3477L49.6062 11.3359L49.593 11.3477ZM49.5832 11.34V11.3385L49.5797 11.3353L49.5832 11.34ZM50.9082 11.5726C50.8676 11.7134 50.8172 11.8223 50.8172 11.8963C50.8172 12.0213 50.9919 12.0414 51.1281 12.0414H51.1745V12.1667C51.0084 12.1577 50.8379 12.1503 50.6718 12.1503C50.5218 12.1503 50.373 12.1578 50.2241 12.1667V12.0414H50.2477C50.4104 12.0414 50.548 11.9461 50.6093 11.7713L51.2744 9.86553C51.3279 9.71176 51.4031 9.50413 51.4273 9.3501C51.5603 9.30489 51.7261 9.22195 51.8058 9.17185C51.8176 9.16756 51.826 9.16321 51.8387 9.16321C51.8511 9.16321 51.8588 9.16321 51.8672 9.17617C51.8798 9.20899 51.8928 9.24672 51.9052 9.27983L52.6687 11.4523C52.7185 11.5974 52.7681 11.7509 52.8227 11.8759C52.8725 11.9922 52.9601 12.0414 53.0965 12.0414H53.1219V12.1667C52.9348 12.1578 52.7479 12.1503 52.5484 12.1503C52.3454 12.1503 52.1376 12.1578 51.9256 12.1667V12.0414H51.9718C52.0665 12.0414 52.2294 12.0253 52.2294 11.9214C52.2294 11.8675 52.1917 11.7555 52.1453 11.6222L51.9841 11.1404H51.0415L50.9082 11.5726ZM51.5151 9.73252H51.5067L51.1201 10.908H51.8971L51.5151 9.73252Z" fill="white"/>
<path d="M53.1205 12.1843C52.9337 12.1768 52.7472 12.1676 52.5488 12.1676C52.3464 12.1676 52.1385 12.1768 51.9266 12.1843L51.9082 12.1855V12.0236H51.9712C52.0679 12.0236 52.2111 12.0012 52.2113 11.9214C52.2122 11.8741 52.1748 11.761 52.1285 11.6279L51.9707 11.1583H51.0543L50.9259 11.5778C50.8844 11.7201 50.8349 11.8292 50.8358 11.8963C50.8358 11.9983 50.9912 12.0236 51.1286 12.0236H51.1919V12.1855L51.1735 12.1843C51.0073 12.1768 50.8374 12.1676 50.6722 12.1676C50.5234 12.1676 50.3742 12.1768 50.2245 12.1843L50.2064 12.1855V12.0236H50.2481C50.403 12.023 50.5326 11.9341 50.593 11.7656L51.2575 9.85953C51.3105 9.70547 51.3853 9.49842 51.4222 9.33341C51.5526 9.2882 51.7193 9.20527 51.7999 9.15455C51.8108 9.15081 51.8221 9.14592 51.8391 9.14592C51.85 9.14476 51.8713 9.14736 51.8845 9.1701C51.8969 9.20267 51.909 9.24037 51.9228 9.27406L52.6864 11.4462C52.7359 11.5919 52.7857 11.7454 52.8395 11.869C52.8881 11.979 52.9639 12.0225 53.0963 12.0236H53.1395V12.1855L53.1205 12.1843ZM51.9439 12.1477C52.1492 12.1399 52.3513 12.1319 52.5488 12.1319C52.7419 12.1319 52.9231 12.1399 53.1038 12.1471L53.1033 12.0604H53.0964C52.9558 12.0607 52.8577 12.0054 52.8061 11.8831C52.7514 11.7569 52.702 11.6029 52.6524 11.458L51.8883 9.28558C51.8759 9.25246 51.8633 9.21474 51.8532 9.18652C51.8497 9.18134 51.8501 9.18134 51.8468 9.18134H51.8391C51.8304 9.18134 51.8258 9.18422 51.8157 9.18709C51.7348 9.23807 51.5684 9.32097 51.4455 9.35297C51.4198 9.5102 51.3444 9.71725 51.2909 9.87131L50.6261 11.7777C50.5631 11.9579 50.418 12.0607 50.2481 12.0604H50.242V12.1471C50.3849 12.1399 50.5276 12.1319 50.6722 12.1319C50.8331 12.1319 50.9969 12.1399 51.1567 12.1471V12.0604H51.1285C50.9935 12.0587 50.804 12.044 50.7992 11.8963C50.8 11.8139 50.8515 11.7083 50.8916 11.5674L50.9086 11.5729L50.8916 11.5668L51.0283 11.1228H51.9966L52.1629 11.6164C52.2087 11.75 52.2464 11.8603 52.2464 11.9214C52.2404 12.0489 52.0662 12.0578 51.9712 12.0604H51.9439V12.1477H51.9439ZM51.0957 10.9256L51.4939 9.71437H51.5155V9.73251L51.5112 9.73337L51.5155 9.73251V9.71437H51.5285L51.9208 10.9256H51.0957ZM51.1455 10.8899H51.8716L51.5106 9.77743L51.1455 10.8899ZM51.4982 9.73772L51.5065 9.73455L51.4982 9.73772ZM54.1684 11.7595C54.1684 11.9257 54.2836 11.9752 54.4166 11.9922C54.5868 12.0049 54.7736 12.0049 54.9654 11.9838C55.1393 11.9629 55.289 11.8632 55.3632 11.7595C55.4295 11.6679 55.4669 11.5516 55.492 11.4603H55.6123C55.5668 11.697 55.5087 11.9303 55.4586 12.1667C55.0941 12.1667 54.7279 12.1503 54.3631 12.1503C53.9972 12.1503 53.6324 12.1667 53.2671 12.1667V12.0414H53.3241C53.4744 12.0414 53.6367 12.0213 53.6367 11.7636V9.62913C53.6367 9.41255 53.4743 9.39213 53.3241 9.39213H53.2671V9.26744C53.4864 9.26744 53.7026 9.28385 53.9223 9.28385C54.1348 9.28385 54.3421 9.26744 54.554 9.26744V9.39213H54.4494C54.2923 9.39213 54.1684 9.39674 54.1684 9.61617V11.7595Z" fill="white"/>
<path d="M55.4603 12.1843C55.0944 12.1843 54.7291 12.1676 54.3649 12.1676C53.9992 12.1676 53.6339 12.1843 53.268 12.1843H53.2504V12.0236H53.3258C53.4764 12.0201 53.6186 12.0098 53.6204 11.7636V9.6283C53.6186 9.42644 53.4772 9.41261 53.3258 9.40971H53.2504V9.24962H53.268C53.4888 9.24962 53.705 9.26546 53.9243 9.26546C54.1351 9.26546 54.3424 9.24962 54.5557 9.24962H54.5728V9.40971H54.4515C54.2906 9.41431 54.1904 9.40683 54.1872 9.61621V11.7596C54.1884 11.9142 54.2898 11.956 54.4193 11.9741C54.4927 11.9793 54.5696 11.9824 54.6496 11.9824C54.7512 11.9824 54.8569 11.9776 54.964 11.966C55.1333 11.9462 55.279 11.8485 55.3504 11.7495C55.4143 11.6608 55.4512 11.5468 55.4759 11.456L55.4797 11.4422H55.636L55.6322 11.4641C55.5853 11.7017 55.5283 11.9338 55.4779 12.1702L55.4745 12.1843H55.4603V12.1843ZM55.4453 12.148C55.4934 11.9228 55.5479 11.7025 55.5925 11.4779H55.5072C55.4813 11.5683 55.4445 11.6797 55.3791 11.7704C55.3017 11.8781 55.1479 11.9795 54.968 12.0017C54.8592 12.0129 54.7515 12.0187 54.6496 12.0187C54.5693 12.0187 54.4913 12.0149 54.4161 12.0097C54.2811 11.9947 54.1501 11.9372 54.1507 11.7595V9.61615C54.1507 9.38549 54.2966 9.37368 54.4515 9.37368H54.5373V9.28556C54.3326 9.28671 54.1311 9.30195 53.9243 9.30195C53.7093 9.30195 53.4991 9.28671 53.286 9.28556V9.37368H53.3258C53.4741 9.37368 53.6554 9.3996 53.6554 9.62825V11.7635C53.6554 12.0322 53.4749 12.0601 53.3258 12.0601H53.286V12.148C53.6451 12.1477 54.0041 12.1321 54.3648 12.1321C54.7256 12.1321 55.0861 12.1477 55.4453 12.148ZM55.5637 9.14935C55.8138 9.14935 56.0007 9.34172 56.0007 9.58822C56.0007 9.83357 55.8139 10.0242 55.5637 10.0242C55.3135 10.0242 55.1263 9.83357 55.1263 9.58822C55.1263 9.34174 55.3134 9.14935 55.5637 9.14935ZM55.5637 9.94271C55.7591 9.94271 55.9094 9.77568 55.9094 9.58822C55.9094 9.3996 55.7614 9.23114 55.5637 9.23114C55.367 9.23114 55.2167 9.39963 55.2167 9.58822C55.2167 9.77568 55.367 9.94271 55.5637 9.94271ZM55.346 9.81859V9.79699C55.3998 9.78951 55.4096 9.79124 55.4096 9.75783V9.43415C55.4096 9.38868 55.4047 9.37313 55.348 9.37541V9.35323H55.5717C55.6489 9.35323 55.7194 9.38981 55.7194 9.46929C55.7194 9.53437 55.6762 9.58246 55.616 9.60118L55.6877 9.70136C55.7214 9.74686 55.7591 9.78951 55.7841 9.80445V9.81856H55.699C55.6581 9.81856 55.6224 9.73246 55.5417 9.61699H55.4934V9.76241C55.4934 9.79121 55.5034 9.78948 55.5573 9.79697V9.81856H55.346V9.81859ZM55.4934 9.58822H55.5449C55.6013 9.58822 55.6278 9.54531 55.6278 9.47649C55.6278 9.4068 55.5869 9.38229 55.542 9.38229H55.4934V9.58822Z" fill="white"/>
</svg>
