<svg width="44" height="21" viewBox="0 0 44 21" fill="none" xmlns="http://www.w3.org/2000/svg">
<path d="M0 0H43.989V20.7732H0V0Z" fill="#3F3F40"/>
<path d="M9.06187 6.36342C9.48523 6.22239 9.9368 6.14717 10.4053 6.14717C12.4562 6.14717 14.1684 7.60263 14.5598 9.53761L17.4668 8.94527C16.8007 5.65825 13.8918 3.18359 10.4053 3.18359C9.60564 3.18359 8.83985 3.31334 8.12109 3.55404L9.06187 6.36342Z" fill="#FFCB05"/>
<path d="M5.6341 15.7769L7.60033 13.5561C6.72353 12.7795 6.17035 11.6456 6.17035 10.3819C6.17035 9.12016 6.72353 7.98626 7.60033 7.21151L5.6341 4.98883C4.14391 6.3089 3.20312 8.23635 3.20312 10.3819C3.20312 12.5294 4.14391 14.4569 5.6341 15.7769Z" fill="#00A4E0"/>
<path d="M14.5598 11.2319C14.1665 13.165 12.4562 14.6186 10.4072 14.6186C9.9368 14.6186 9.48334 14.5433 9.06187 14.4004L8.12109 17.2136C8.83985 17.4524 9.60753 17.5821 10.4072 17.5821C13.89 17.5821 16.797 15.1112 17.4668 11.828L14.5598 11.2319Z" fill="#EF4123"/>
<path d="M20.0114 13.6483C19.9155 13.4941 19.7875 13.2477 19.7085 13.0653C19.2475 11.9972 19.2268 10.8915 19.6144 9.83096C20.0415 8.66697 20.8581 7.77752 21.9137 7.32245C23.2402 6.75268 24.7059 6.86362 25.9779 7.61768C26.7851 8.08027 27.3571 8.79484 27.7917 9.80652C27.8463 9.93627 27.8952 10.0735 27.9441 10.192L20.0114 13.6483ZM22.6607 9.0393C21.718 9.44359 21.2326 10.3274 21.3342 11.3616L25.3231 9.6448C24.6363 8.83997 23.7445 8.57295 22.6607 9.0393ZM25.8198 12.7739C25.8179 12.7739 25.8179 12.7757 25.8179 12.7757L25.7352 12.7193C25.4962 13.1048 25.1255 13.4188 24.657 13.6219C23.7652 14.0093 22.9392 13.9096 22.3446 13.3888L22.29 13.4715C22.29 13.4715 22.29 13.4696 22.2881 13.4696L21.2759 14.9834C21.528 15.1583 21.797 15.3049 22.0793 15.4234C23.1969 15.8879 24.3409 15.8653 25.468 15.3764C26.2827 15.0229 26.9224 14.4851 27.3589 13.8025L25.8198 12.7739ZM30.7157 5.09601V13.5091L32.0252 14.0394L31.282 15.7732L29.837 15.1714C29.5133 15.0304 29.2913 14.816 29.1257 14.5734C28.9658 14.3271 28.8473 13.9867 28.8473 13.5317V5.09601H30.7157ZM34.1062 11.3673C34.1062 10.6508 34.4242 10.0077 34.9247 9.57146L33.5813 8.07463C32.6706 8.87946 32.0967 10.0547 32.0967 11.3635C32.0948 12.6742 32.6687 13.8513 33.5775 14.6562L34.9191 13.1593C34.4204 12.7212 34.1062 12.0819 34.1062 11.3673ZM36.492 13.7536C36.2286 13.7536 35.9727 13.7084 35.7357 13.6295L35.094 15.5343C35.5324 15.681 36.001 15.7619 36.4902 15.7619C38.6163 15.7638 40.3906 14.2556 40.8027 12.253L38.8308 11.8506C38.6069 12.9393 37.6454 13.7554 36.492 13.7536ZM36.4977 6.97269C36.0104 6.97269 35.5419 7.05167 35.1035 7.19646L35.7394 9.10323C35.9784 9.02425 36.2324 8.981 36.4958 8.981C37.6511 8.98288 38.6144 9.80275 38.8327 10.8934L40.8046 10.4948C40.4001 8.48833 38.6257 6.97457 36.4977 6.97269Z" fill="white"/>
</svg>
