<svg width="139" height="51" viewBox="0 0 139 51" fill="none" xmlns="http://www.w3.org/2000/svg">
<path d="M54.7054 1.42721e-06H10.5528C9.76988 -2.22618e-05 9.00028 0.202714 8.31869 0.588506C7.6371 0.974299 7.06668 1.53005 6.6628 2.2018C6.25893 2.87356 6.03531 3.63851 6.01368 4.42237C5.99205 5.20623 6.17312 5.98236 6.53933 6.67544L10.9553 15.0518H2.94838C2.4401 15.051 1.94027 15.1821 1.49756 15.4322C1.05485 15.6823 0.684338 16.043 0.42209 16.4791C0.159841 16.9152 0.0148065 17.4119 0.00107475 17.9209C-0.012657 18.4298 0.105396 18.9336 0.343744 19.3832L14.5496 46.3132C14.7999 46.7871 15.1744 47.1836 15.6329 47.4602C16.0914 47.7367 16.6165 47.8829 17.1517 47.8829C17.6869 47.8829 18.212 47.7367 18.6705 47.4602C19.129 47.1836 19.5035 46.7871 19.7539 46.3132L23.6126 39.038L28.4526 48.2157C28.8381 48.947 29.4152 49.5592 30.1219 49.9865C30.8287 50.4139 31.6383 50.6403 32.4639 50.6413C33.2895 50.6423 34.0997 50.418 34.8075 49.9924C35.5153 49.5668 36.0939 48.956 36.4811 48.2257L58.6123 6.51217C58.9714 5.83693 59.1497 5.08006 59.13 4.31527C59.1103 3.55048 58.8931 2.80385 58.4997 2.14809C58.1063 1.49234 57.55 0.949826 56.8851 0.573381C56.2201 0.196936 55.4692 -0.000612638 54.7054 1.42721e-06V1.42721e-06ZM34.8728 17.8256L25.3307 35.8178C25.1641 36.133 24.9148 36.3967 24.6098 36.5806C24.3047 36.7645 23.9554 36.8617 23.5993 36.8617C23.2432 36.8617 22.8939 36.7645 22.5888 36.5806C22.2837 36.3967 22.0345 36.133 21.8678 35.8178L12.4173 17.9039C12.2591 17.6052 12.1806 17.2706 12.1895 16.9326C12.1984 16.5946 12.2944 16.2646 12.4681 15.9746C12.6417 15.6847 12.8873 15.4446 13.1809 15.2776C13.4744 15.1107 13.8061 15.0226 14.1437 15.0218H33.1912C33.5202 15.0218 33.8436 15.107 34.1299 15.2693C34.4162 15.4315 34.6558 15.6652 34.8252 15.9476C34.9947 16.23 35.0883 16.5515 35.0969 16.8809C35.1055 17.2103 35.0289 17.5363 34.8745 17.8273L34.8728 17.8256Z" fill="#F71963"/>
<path d="M101.669 19.3509H96.8457V35.9304C96.8452 36.0814 96.7852 36.226 96.6786 36.3328C96.572 36.4395 96.4276 36.4997 96.2769 36.5001H92.5528C92.4021 36.4997 92.2576 36.4395 92.151 36.3328C92.0445 36.226 91.9844 36.0814 91.9839 35.9304V19.3509H87.1257C87.0526 19.3538 86.9796 19.342 86.9112 19.3162C86.8427 19.2904 86.78 19.2511 86.727 19.2006C86.674 19.1501 86.6316 19.0895 86.6023 19.0223C86.5731 18.9552 86.5576 18.8828 86.5568 18.8095V15.8774C86.5576 15.8042 86.5731 15.7318 86.6023 15.6646C86.6316 15.5974 86.674 15.5368 86.727 15.4864C86.78 15.4359 86.8427 15.3966 86.9112 15.3708C86.9796 15.3449 87.0526 15.3331 87.1257 15.336H101.674C101.825 15.3292 101.972 15.3823 102.084 15.4837C102.196 15.5851 102.263 15.7266 102.271 15.8774V18.8112C102.263 18.9627 102.194 19.1045 102.082 19.2057C101.969 19.3069 101.82 19.3591 101.669 19.3509V19.3509Z" fill="#F71963"/>
<path d="M117.172 36.3803C115.272 36.6513 113.352 36.7749 111.433 36.7501C107.765 36.7501 104.523 35.8105 104.523 30.6278V21.1685C104.523 15.9858 107.793 15.0745 111.461 15.0745C113.371 15.0492 115.281 15.1728 117.172 15.4443C117.57 15.501 117.741 15.6443 117.741 16.0141V18.6663C117.741 18.8173 117.681 18.9619 117.574 19.0687C117.468 19.1754 117.323 19.2356 117.172 19.236H111.185C109.854 19.236 109.365 19.6909 109.365 21.1736V23.7658H116.953C117.104 23.7662 117.248 23.8263 117.355 23.9331C117.461 24.0398 117.521 24.1845 117.522 24.3355V27.0343C117.521 27.1853 117.461 27.3299 117.355 27.4367C117.248 27.5435 117.104 27.6036 116.953 27.6041H109.365V30.6228C109.365 32.1038 109.847 32.5603 111.185 32.5603H117.172C117.323 32.5607 117.468 32.6209 117.574 32.7276C117.681 32.8344 117.741 32.9791 117.741 33.13V35.7789C117.741 36.152 117.57 36.3236 117.172 36.3803Z" fill="#F71963"/>
<path d="M138.626 36.4942H134.112C133.96 36.5059 133.808 36.4714 133.677 36.3953C133.545 36.3192 133.439 36.205 133.373 36.0677L129.455 29.8354L125.904 35.9311C125.704 36.2726 125.506 36.5008 125.195 36.5008H120.987C120.934 36.5079 120.881 36.5037 120.83 36.4884C120.779 36.4731 120.731 36.4471 120.691 36.4121C120.651 36.3771 120.618 36.334 120.596 36.2855C120.574 36.2371 120.562 36.1844 120.561 36.131C120.567 36.0612 120.586 35.9933 120.618 35.9311L126.772 25.6439L120.55 15.8748C120.519 15.8241 120.5 15.7672 120.493 15.7082C120.503 15.6037 120.553 15.507 120.632 15.4382C120.711 15.3693 120.814 15.3336 120.919 15.3384H125.496C125.809 15.3384 126.037 15.6233 126.205 15.8798L129.842 21.6323L133.363 15.8798C133.426 15.737 133.524 15.6124 133.648 15.5178C133.772 15.4231 133.918 15.3614 134.072 15.3384H138.28C138.348 15.324 138.42 15.3303 138.485 15.3565C138.55 15.3826 138.606 15.4275 138.645 15.4855C138.685 15.5434 138.706 15.6119 138.707 15.682C138.708 15.7522 138.688 15.8211 138.649 15.8798L132.457 25.7089L138.915 35.9361C138.966 36.0229 138.995 36.1206 139 36.221C138.995 36.3809 138.854 36.4942 138.626 36.4942Z" fill="#F71963"/>
<path d="M79.7348 15.3913C79.6334 15.3917 79.5352 15.4272 79.4569 15.4919C79.3787 15.5566 79.3253 15.6464 79.3057 15.7461L75.1791 31.0461C75.1226 31.3593 75.0377 31.4726 74.7816 31.4726C74.5255 31.4726 74.4406 31.3543 74.3841 31.0461L70.2526 15.7428C70.233 15.6431 70.1795 15.5533 70.1013 15.4886C70.023 15.4239 69.925 15.3883 69.8235 15.3879H65.7618C65.6957 15.388 65.6304 15.4029 65.5709 15.4318C65.5113 15.4606 65.4591 15.5025 65.418 15.5544C65.3769 15.6063 65.348 15.6668 65.3335 15.7315C65.3191 15.7961 65.3193 15.8632 65.3344 15.9277C65.3344 15.9277 70.3757 33.4751 70.4306 33.6467C70.7003 34.5848 71.2818 35.4026 72.0788 35.9645C72.8758 36.5265 73.8405 36.7991 74.8133 36.737C75.78 36.7752 76.7325 36.494 77.5241 35.9368C78.3157 35.3796 78.9025 34.5773 79.1942 33.6533C79.2741 33.4168 84.204 15.9277 84.204 15.9277C84.2187 15.8633 84.2188 15.7964 84.2042 15.732C84.1896 15.6676 84.1606 15.6073 84.1195 15.5556C84.0784 15.5039 84.0263 15.4621 83.9669 15.4334C83.9075 15.4047 83.8424 15.3897 83.7765 15.3896L79.7348 15.3913Z" fill="#F71963"/>
<path d="M54.7054 1.42721e-06H10.5528C9.76988 -2.22618e-05 9.00028 0.202714 8.31869 0.588506C7.6371 0.974299 7.06668 1.53005 6.6628 2.2018C6.25893 2.87356 6.03531 3.63851 6.01368 4.42237C5.99205 5.20623 6.17312 5.98236 6.53933 6.67544L10.9553 15.0518H2.94838C2.4401 15.051 1.94027 15.1821 1.49756 15.4322C1.05485 15.6823 0.684338 16.043 0.42209 16.4791C0.159841 16.9152 0.0148065 17.4119 0.00107475 17.9209C-0.012657 18.4298 0.105396 18.9336 0.343744 19.3832L14.5496 46.3132C14.7999 46.7871 15.1744 47.1836 15.6329 47.4602C16.0914 47.7367 16.6165 47.8829 17.1517 47.8829C17.6869 47.8829 18.212 47.7367 18.6705 47.4602C19.129 47.1836 19.5035 46.7871 19.7539 46.3132L23.6126 39.038L28.4526 48.2157C28.8381 48.947 29.4152 49.5592 30.1219 49.9865C30.8287 50.4139 31.6383 50.6403 32.4639 50.6413C33.2895 50.6423 34.0997 50.418 34.8075 49.9924C35.5153 49.5668 36.0939 48.956 36.4811 48.2257L58.6123 6.51217C58.9714 5.83693 59.1497 5.08006 59.13 4.31527C59.1103 3.55048 58.8931 2.80385 58.4997 2.14809C58.1063 1.49234 57.55 0.949826 56.8851 0.573381C56.2201 0.196936 55.4692 -0.000612638 54.7054 1.42721e-06V1.42721e-06ZM34.8728 17.8256L25.3307 35.8178C25.1641 36.133 24.9148 36.3967 24.6098 36.5806C24.3047 36.7645 23.9554 36.8617 23.5993 36.8617C23.2432 36.8617 22.8939 36.7645 22.5888 36.5806C22.2837 36.3967 22.0345 36.133 21.8678 35.8178L12.4173 17.9039C12.2591 17.6052 12.1806 17.2706 12.1895 16.9326C12.1984 16.5946 12.2944 16.2646 12.4681 15.9746C12.6417 15.6847 12.8873 15.4446 13.1809 15.2776C13.4744 15.1107 13.8061 15.0226 14.1437 15.0218H33.1912C33.5202 15.0218 33.8436 15.107 34.1299 15.2693C34.4162 15.4315 34.6558 15.6652 34.8252 15.9476C34.9947 16.23 35.0883 16.5515 35.0969 16.8809C35.1055 17.2103 35.0289 17.5363 34.8745 17.8273L34.8728 17.8256Z" fill="#F71963"/>
</svg>
