<svg width="23" height="22" viewBox="0 0 23 22" fill="none" xmlns="http://www.w3.org/2000/svg">
<g clip-path="url(#clip0_1_238)">
<path d="M22.5128 5.43491L22.5404 5.61458C22.2743 4.67133 21.5559 3.94349 20.643 3.67858L20.6237 3.67399C18.9071 3.20833 11.9993 3.20833 11.9993 3.20833C11.9993 3.20833 5.10886 3.19916 3.37479 3.67399C2.44445 3.94349 1.72514 4.67133 1.46365 5.59533L1.45906 5.61458C0.817732 8.96133 0.813144 12.9827 1.4875 16.566L1.45906 16.3845C1.72514 17.3277 2.44353 18.0556 3.35644 18.3205L3.37571 18.3251C5.09051 18.7917 12.0002 18.7917 12.0002 18.7917C12.0002 18.7917 18.8897 18.7917 20.6246 18.3251C21.5559 18.0556 22.2752 17.3277 22.5367 16.4037L22.5413 16.3845C22.833 14.828 23 13.0368 23 11.2072C23 11.1402 23 11.0724 22.9991 11.0046C23 10.9422 23 10.868 23 10.7937C23 8.96316 22.833 7.17199 22.5128 5.43491ZM9.79543 14.3467V7.66149L15.5445 11.0092L9.79543 14.3467Z" fill="white"/>
</g>
<defs>
<clipPath id="clip0_1_238">
<rect width="22.0199" height="22" fill="white" transform="translate(0.980103)"/>
</clipPath>
</defs>
</svg>
